<svg xmlns="http://www.w3.org/2000/svg" xmlns:xlink="http://www.w3.org/1999/xlink" width="500" zoomAndPan="magnify" viewBox="0 0 375 374.999991" height="500" preserveAspectRatio="xMidYMid meet" version="1.0"><defs><g/><clipPath id="f8b600b8ad"><path d="M 136.128906 138.863281 L 238.878906 138.863281 L 238.878906 186.113281 L 136.128906 186.113281 Z M 136.128906 138.863281 " clip-rule="nonzero"/></clipPath></defs><g clip-path="url(#f8b600b8ad)"><path fill="#ff0000" d="M 237.632812 184.230469 L 226.261719 184.230469 L 233.464844 167.9375 C 233.6875 167.449219 233.679688 166.96875 233.441406 166.488281 L 226.078125 151.070312 C 225.785156 150.457031 225.300781 150.101562 224.628906 150 L 214.019531 148.082031 C 213.75 148.035156 213.480469 148.035156 213.210938 148.089844 L 199.996094 150.726562 C 199.660156 150.78125 199.359375 150.921875 199.09375 151.136719 C 198.832031 151.355469 198.640625 151.625 198.519531 151.945312 L 195.039062 161.46875 L 188.160156 160.75 L 180.125 142.632812 C 179.976562 142.285156 179.753906 141.992188 179.457031 141.757812 C 179.160156 141.523438 178.824219 141.371094 178.453125 141.300781 L 166.199219 138.917969 C 165.886719 138.855469 165.578125 138.859375 165.265625 138.929688 L 150.007812 142.203125 C 149.605469 142.285156 149.253906 142.460938 148.949219 142.730469 C 148.644531 143.003906 148.429688 143.332031 148.300781 143.71875 L 141.488281 163.796875 C 141.308594 164.308594 141.316406 164.8125 141.507812 165.320312 L 148.402344 184.207031 L 148.410156 184.230469 L 137.347656 184.230469 C 137.089844 184.230469 136.867188 184.320312 136.683594 184.503906 C 136.5 184.6875 136.40625 184.90625 136.40625 185.164062 C 136.40625 185.421875 136.5 185.644531 136.683594 185.824219 C 136.867188 186.007812 137.089844 186.097656 137.347656 186.097656 L 237.632812 186.097656 C 237.890625 186.097656 238.113281 186.007812 238.296875 185.824219 C 238.480469 185.644531 238.570312 185.421875 238.570312 185.164062 C 238.570312 184.90625 238.480469 184.6875 238.296875 184.503906 C 238.113281 184.320312 237.890625 184.230469 237.632812 184.230469 Z M 216.242188 150.21875 C 216.378906 150.066406 216.546875 150.007812 216.746094 150.046875 L 224.09375 151.339844 C 224.390625 151.386719 224.601562 151.539062 224.730469 151.808594 L 228.570312 159.878906 C 228.589844 159.921875 228.578125 159.957031 228.53125 159.980469 C 228.488281 160.003906 228.453125 159.996094 228.417969 159.957031 L 226.214844 157.136719 C 226.058594 156.933594 225.851562 156.824219 225.59375 156.808594 L 222.003906 156.480469 C 221.714844 156.449219 221.472656 156.535156 221.269531 156.746094 C 221.070312 156.941406 221 157.175781 221.066406 157.449219 L 222.679688 164.449219 C 222.691406 164.496094 222.671875 164.527344 222.621094 164.542969 C 222.574219 164.558594 222.539062 164.542969 222.515625 164.496094 L 216.167969 150.710938 C 216.082031 150.53125 216.105469 150.367188 216.242188 150.21875 Z M 213.679688 149.714844 C 213.753906 149.59375 213.863281 149.539062 214.003906 149.550781 C 214.144531 149.554688 214.242188 149.621094 214.300781 149.75 L 221.214844 164.761719 C 221.277344 164.890625 221.257812 165.003906 221.152344 165.105469 C 221.046875 165.207031 220.925781 165.238281 220.785156 165.191406 L 217.140625 164.0625 C 217.097656 164.050781 217.074219 164.023438 217.082031 163.976562 C 217.085938 163.933594 217.109375 163.910156 217.15625 163.90625 L 217.839844 163.824219 C 217.953125 163.8125 218.042969 163.757812 218.101562 163.660156 C 218.160156 163.566406 218.164062 163.46875 218.109375 163.371094 L 212.902344 152.976562 C 212.855469 152.886719 212.789062 152.832031 212.691406 152.804688 C 212.59375 152.773438 212.503906 152.785156 212.414062 152.832031 L 211.707031 153.199219 C 211.667969 153.21875 211.632812 153.214844 211.601562 153.1875 C 211.566406 153.160156 211.5625 153.125 211.585938 153.089844 Z M 188.652344 163.605469 C 188.824219 163.199219 188.871094 162.78125 188.796875 162.351562 L 205.207031 164.0625 C 206.542969 164.203125 207.0625 165.222656 207.238281 166.359375 C 207.246094 166.40625 207.230469 166.441406 207.1875 166.464844 C 207.148438 166.488281 207.109375 166.484375 207.074219 166.453125 C 206.613281 166.109375 206.097656 165.929688 205.527344 165.917969 L 188.332031 164.390625 Z M 205.734375 169.554688 L 205.785156 169.558594 C 206.109375 169.597656 206.410156 169.535156 206.691406 169.371094 C 206.734375 169.34375 206.773438 169.347656 206.808594 169.378906 C 206.847656 169.414062 206.855469 169.453125 206.832031 169.496094 C 206.550781 170.113281 206.136719 170.585938 205.574219 170.515625 L 205.527344 170.507812 L 186.347656 169.226562 L 186.808594 168.105469 Z M 168.765625 141.578125 C 168.917969 141.386719 169.113281 141.316406 169.351562 141.363281 L 177.832031 142.972656 C 178.183594 143.035156 178.429688 143.226562 178.566406 143.554688 L 183 153.585938 C 183.035156 153.644531 183.023438 153.691406 182.964844 153.722656 C 182.90625 153.753906 182.859375 153.742188 182.828125 153.683594 L 180.285156 150.179688 C 180.109375 149.929688 179.871094 149.792969 179.566406 149.769531 L 175.421875 149.363281 C 175.261719 149.347656 175.109375 149.367188 174.957031 149.425781 C 174.808594 149.484375 174.679688 149.574219 174.574219 149.691406 C 174.464844 149.8125 174.390625 149.949219 174.351562 150.101562 C 174.308594 150.257812 174.304688 150.414062 174.339844 150.570312 L 176.203125 159.269531 C 176.214844 159.328125 176.195312 159.367188 176.136719 159.382812 C 176.078125 159.402344 176.035156 159.382812 176.011719 159.328125 L 168.679688 142.1875 C 168.582031 141.96875 168.613281 141.761719 168.765625 141.578125 Z M 165.808594 140.949219 C 165.890625 140.804688 166.015625 140.738281 166.179688 140.746094 C 166.347656 140.757812 166.460938 140.839844 166.527344 140.992188 L 174.511719 159.65625 C 174.578125 159.816406 174.554688 159.957031 174.4375 160.085938 C 174.316406 160.210938 174.175781 160.25 174.011719 160.191406 L 169.804688 158.789062 C 169.753906 158.773438 169.730469 158.738281 169.738281 158.683594 C 169.742188 158.632812 169.769531 158.601562 169.824219 158.597656 L 170.613281 158.492188 C 170.746094 158.476562 170.847656 158.410156 170.910156 158.289062 C 170.976562 158.171875 170.980469 158.050781 170.925781 157.929688 L 164.910156 145.003906 C 164.859375 144.898438 164.777344 144.828125 164.667969 144.792969 C 164.554688 144.757812 164.449219 144.765625 164.347656 144.824219 L 163.527344 145.28125 C 163.484375 145.308594 163.441406 145.304688 163.40625 145.265625 C 163.371094 145.230469 163.363281 145.191406 163.390625 145.144531 Z M 144.933594 165.386719 C 144.949219 165.449219 144.925781 165.488281 144.867188 165.507812 C 144.804688 165.523438 144.765625 165.503906 144.742188 165.441406 L 144.234375 164.316406 C 144.121094 164.074219 144.109375 163.824219 144.203125 163.570312 L 149.242188 148.839844 C 149.371094 148.460938 149.632812 148.246094 150.03125 148.1875 L 157.738281 146.898438 C 158.085938 146.839844 158.417969 146.898438 158.726562 147.070312 C 159.035156 147.242188 159.253906 147.492188 159.382812 147.820312 L 164.820312 160.90625 C 164.96875 161.261719 164.976562 161.617188 164.835938 161.976562 L 163.9375 164.460938 C 163.917969 164.515625 163.878906 164.539062 163.824219 164.527344 C 163.769531 164.519531 163.742188 164.488281 163.742188 164.433594 C 163.683594 162.722656 162.261719 161.113281 160.566406 161.605469 C 159.640625 161.875 159 162.859375 158.628906 163.9375 C 158.121094 165.417969 157.351562 167.332031 155.328125 168.011719 C 155.269531 168.03125 155.230469 168.015625 155.203125 167.964844 C 155.175781 167.910156 155.1875 167.867188 155.238281 167.835938 C 155.792969 167.429688 156.230469 166.925781 156.550781 166.324219 C 157.167969 165.097656 157.476562 163.796875 157.476562 162.425781 C 157.476562 161.054688 157.167969 159.753906 156.550781 158.527344 C 156.050781 157.628906 155.253906 156.769531 154.195312 156.574219 C 154.046875 156.546875 153.898438 156.53125 153.746094 156.53125 L 149.75 156.53125 C 149.601562 156.53125 149.453125 156.546875 149.304688 156.574219 C 148.242188 156.769531 147.449219 157.628906 146.945312 158.527344 C 146.308594 159.75 146 161.046875 146.019531 162.425781 C 146.019531 162.523438 146.023438 162.621094 146.023438 162.71875 C 146.027344 162.773438 146.003906 162.808594 145.949219 162.820312 C 145.246094 163.011719 144.746094 163.890625 144.933594 165.386719 Z M 152.222656 166.3125 C 152.648438 165.699219 152.953125 165.03125 153.132812 164.308594 C 153.144531 164.257812 153.179688 164.234375 153.230469 164.234375 L 155.621094 164.234375 C 155.65625 164.234375 155.683594 164.246094 155.703125 164.273438 C 155.722656 164.300781 155.730469 164.332031 155.71875 164.363281 C 155.617188 164.675781 155.488281 164.972656 155.332031 165.261719 C 155.066406 165.738281 154.597656 166.34375 154.015625 166.453125 C 153.957031 166.464844 153.898438 166.46875 153.839844 166.46875 L 152.304688 166.46875 C 152.265625 166.46875 152.234375 166.453125 152.214844 166.414062 C 152.195312 166.378906 152.199219 166.34375 152.222656 166.308594 Z M 152.214844 157.988281 C 152.234375 157.949219 152.265625 157.933594 152.304688 157.933594 L 153.839844 157.933594 C 153.898438 157.933594 153.957031 157.9375 154.015625 157.949219 C 154.597656 158.058594 155.066406 158.664062 155.332031 159.144531 C 155.597656 159.632812 155.78125 160.148438 155.890625 160.691406 C 155.898438 160.722656 155.890625 160.75 155.871094 160.773438 C 155.851562 160.800781 155.824219 160.8125 155.792969 160.8125 L 153.371094 160.8125 C 153.3125 160.8125 153.28125 160.785156 153.269531 160.726562 C 153.121094 159.769531 152.773438 158.890625 152.222656 158.089844 C 152.199219 158.058594 152.195312 158.023438 152.214844 157.988281 Z M 148.207031 161.027344 C 147.945312 161.035156 147.71875 161.132812 147.53125 161.324219 C 147.5 161.355469 147.460938 161.359375 147.417969 161.339844 C 147.378906 161.320312 147.359375 161.285156 147.367188 161.242188 C 147.601562 159.230469 148.5625 157.726562 149.714844 157.726562 C 151.042969 157.726562 152.121094 159.730469 152.121094 162.203125 C 152.121094 164.675781 151.042969 166.679688 149.714844 166.679688 C 149.433594 166.675781 149.179688 166.597656 148.945312 166.445312 C 148.917969 166.429688 148.902344 166.402344 148.898438 166.371094 C 148.894531 166.339844 148.90625 166.3125 148.929688 166.289062 C 149.394531 165.816406 149.714844 164.890625 149.714844 163.828125 C 149.714844 162.28125 149.042969 161.027344 148.207031 161.027344 Z M 164.628906 183.683594 C 164.589844 183.722656 164.542969 183.726562 164.5 183.695312 L 160.765625 180.914062 C 160.398438 180.632812 159.984375 180.496094 159.519531 180.511719 L 151.605469 180.660156 C 151.308594 180.660156 151.039062 180.742188 150.792969 180.90625 C 150.546875 181.070312 150.363281 181.289062 150.25 181.5625 L 149.53125 183.207031 C 149.507812 183.257812 149.46875 183.277344 149.414062 183.261719 C 149.359375 183.25 149.335938 183.214844 149.339844 183.160156 L 149.527344 180.652344 C 149.546875 180.433594 149.515625 180.222656 149.4375 180.019531 L 145.515625 169.519531 C 145.492188 169.460938 145.511719 169.417969 145.570312 169.394531 C 145.628906 169.367188 145.671875 169.382812 145.699219 169.441406 L 150.199219 178.691406 C 150.324219 178.960938 150.515625 179.171875 150.769531 179.324219 C 151.023438 179.476562 151.300781 179.550781 151.597656 179.539062 L 158.734375 179.355469 C 159.148438 179.351562 159.523438 179.226562 159.859375 178.988281 C 160.195312 178.75 160.433594 178.4375 160.574219 178.046875 L 166.542969 161.953125 C 166.734375 161.457031 166.722656 160.96875 166.507812 160.484375 L 160.660156 146.640625 C 160.574219 146.433594 160.457031 146.246094 160.304688 146.078125 C 160.15625 145.910156 159.980469 145.769531 159.78125 145.660156 C 159.585938 145.550781 159.375 145.480469 159.148438 145.441406 C 158.925781 145.402344 158.703125 145.402344 158.480469 145.441406 L 150.644531 146.71875 C 150.503906 146.738281 150.367188 146.734375 150.234375 146.699219 C 150.097656 146.664062 149.976562 146.605469 149.863281 146.519531 C 149.753906 146.4375 149.664062 146.332031 149.597656 146.210938 C 149.53125 146.089844 149.492188 145.960938 149.476562 145.820312 L 149.332031 144.25 C 149.324219 144.195312 149.347656 144.15625 149.402344 144.140625 C 149.457031 144.125 149.496094 144.144531 149.523438 144.195312 L 149.957031 145 C 150.058594 145.195312 150.207031 145.335938 150.402344 145.433594 C 150.597656 145.527344 150.800781 145.554688 151.015625 145.515625 L 159.808594 144.011719 C 160.175781 143.953125 160.5 143.800781 160.78125 143.558594 L 164.355469 140.5 C 164.398438 140.464844 164.441406 140.464844 164.488281 140.5 C 164.53125 140.539062 164.535156 140.582031 164.503906 140.628906 L 162.316406 144.128906 C 162.136719 144.402344 162.035156 144.699219 162.011719 145.023438 C 161.984375 145.347656 162.035156 145.660156 162.167969 145.957031 L 167.761719 159.292969 C 168.015625 159.917969 168.46875 160.308594 169.128906 160.460938 L 173.351562 161.515625 C 173.417969 161.523438 173.449219 161.5625 173.441406 161.628906 C 173.429688 161.695312 173.394531 161.722656 173.328125 161.714844 L 169.675781 161.714844 C 169.253906 161.710938 168.871094 161.824219 168.527344 162.0625 C 168.179688 162.300781 167.933594 162.617188 167.792969 163.011719 L 161.945312 178.480469 C 161.820312 178.800781 161.78125 179.132812 161.832031 179.472656 C 161.882812 179.816406 162.015625 180.121094 162.226562 180.394531 L 164.636719 183.554688 C 164.671875 183.601562 164.667969 183.644531 164.628906 183.683594 Z M 166.808594 182.65625 C 166.664062 182.683594 166.539062 182.640625 166.4375 182.527344 L 163.761719 179.550781 C 163.726562 179.511719 163.722656 179.472656 163.75 179.429688 C 163.777344 179.386719 163.816406 179.371094 163.863281 179.386719 L 165.417969 179.84375 C 165.519531 179.875 165.617188 179.867188 165.710938 179.820312 C 165.804688 179.773438 165.871094 179.703125 165.90625 179.605469 L 171.59375 164.808594 C 171.632812 164.703125 171.628906 164.605469 171.585938 164.503906 C 171.539062 164.402344 171.46875 164.332031 171.363281 164.292969 L 169.171875 163.425781 C 169.125 163.398438 169.109375 163.363281 169.128906 163.3125 C 169.140625 163.265625 169.175781 163.238281 169.226562 163.238281 L 174.183594 163.238281 C 174.25 163.238281 174.3125 163.253906 174.371094 163.285156 C 174.433594 163.316406 174.480469 163.359375 174.515625 163.414062 C 174.554688 163.46875 174.578125 163.53125 174.585938 163.597656 C 174.59375 163.664062 174.582031 163.726562 174.558594 163.789062 L 167.113281 182.40625 C 167.058594 182.546875 166.957031 182.628906 166.808594 182.65625 Z M 176.609375 167.550781 L 172.371094 173.835938 C 172.339844 173.894531 172.296875 173.90625 172.238281 173.875 C 172.179688 173.84375 172.164062 173.800781 172.195312 173.742188 L 176.671875 162.511719 C 176.753906 162.304688 176.886719 162.144531 177.074219 162.03125 C 177.261719 161.914062 177.464844 161.863281 177.683594 161.882812 L 186.25 162.523438 C 186.347656 162.53125 186.4375 162.558594 186.519531 162.609375 C 186.601562 162.65625 186.667969 162.722656 186.71875 162.804688 C 186.769531 162.886719 186.800781 162.976562 186.808594 163.070312 C 186.816406 163.167969 186.800781 163.257812 186.765625 163.347656 L 183.578125 171.144531 C 183.558594 171.203125 183.519531 171.222656 183.460938 171.207031 C 183.40625 171.191406 183.378906 171.15625 183.386719 171.097656 L 183.679688 168.503906 C 183.695312 168.367188 183.683594 168.230469 183.644531 168.101562 C 183.605469 167.96875 183.539062 167.847656 183.449219 167.742188 C 183.359375 167.640625 183.253906 167.554688 183.128906 167.492188 C 183.003906 167.433594 182.875 167.398438 182.734375 167.390625 L 177.5 167.109375 C 177.117188 167.082031 176.820312 167.230469 176.609375 167.550781 Z M 180.1875 184.230469 L 185.734375 170.714844 L 193.386719 171.226562 L 198.5 184.230469 Z M 212.660156 184.085938 C 212.625 184.117188 212.585938 184.121094 212.542969 184.09375 L 209.3125 181.855469 C 208.988281 181.628906 208.628906 181.519531 208.234375 181.53125 L 201.378906 181.652344 C 201.128906 181.648438 200.898438 181.710938 200.6875 181.84375 C 200.476562 181.976562 200.316406 182.152344 200.207031 182.378906 L 199.582031 183.699219 C 199.5625 183.742188 199.527344 183.757812 199.480469 183.746094 C 199.433594 183.734375 199.414062 183.707031 199.417969 183.660156 L 199.578125 181.644531 C 199.59375 181.46875 199.570312 181.300781 199.5 181.136719 L 196.105469 172.691406 C 196.085938 172.640625 196.101562 172.609375 196.152344 172.589844 C 196.203125 172.570312 196.238281 172.582031 196.265625 172.628906 L 200.160156 180.066406 C 200.28125 180.289062 200.449219 180.460938 200.667969 180.582031 C 200.886719 180.707031 201.121094 180.761719 201.371094 180.75 L 207.554688 180.605469 C 207.902344 180.605469 208.222656 180.511719 208.511719 180.320312 C 208.800781 180.128906 209.011719 179.871094 209.144531 179.550781 L 214.316406 166.605469 C 214.480469 166.210938 214.472656 165.816406 214.285156 165.425781 L 209.222656 154.292969 C 209.054688 153.941406 208.792969 153.671875 208.441406 153.496094 C 208.089844 153.316406 207.722656 153.261719 207.332031 153.328125 L 200.542969 154.355469 C 200.296875 154.394531 200.074219 154.34375 199.871094 154.195312 C 199.667969 154.0625 199.558594 153.875 199.535156 153.632812 L 199.410156 152.371094 C 199.40625 152.324219 199.429688 152.296875 199.472656 152.285156 C 199.515625 152.273438 199.550781 152.285156 199.574219 152.324219 L 199.953125 152.976562 C 200.046875 153.132812 200.175781 153.25 200.34375 153.324219 C 200.511719 153.398438 200.6875 153.421875 200.867188 153.390625 L 208.484375 152.179688 C 208.796875 152.132812 209.078125 152.011719 209.324219 151.8125 L 212.421875 149.351562 C 212.460938 149.324219 212.5 149.324219 212.535156 149.351562 C 212.574219 149.382812 212.582031 149.417969 212.554688 149.457031 L 210.65625 152.269531 C 210.503906 152.488281 210.414062 152.726562 210.394531 152.988281 C 210.371094 153.25 210.414062 153.503906 210.527344 153.742188 L 215.375 164.464844 C 215.605469 164.980469 216 165.292969 216.558594 165.40625 L 220.214844 166.257812 C 220.265625 166.265625 220.285156 166.292969 220.28125 166.34375 C 220.273438 166.394531 220.246094 166.417969 220.195312 166.414062 L 217.03125 166.414062 C 216.675781 166.402344 216.347656 166.492188 216.050781 166.683594 C 215.753906 166.875 215.535156 167.132812 215.398438 167.457031 L 210.335938 179.898438 C 210.226562 180.15625 210.195312 180.425781 210.238281 180.703125 C 210.28125 180.980469 210.394531 181.222656 210.578125 181.4375 L 212.667969 183.980469 C 212.699219 184.015625 212.695312 184.050781 212.660156 184.085938 Z M 214.546875 183.257812 C 214.421875 183.28125 214.316406 183.246094 214.226562 183.15625 L 211.90625 180.761719 C 211.875 180.730469 211.871094 180.695312 211.898438 180.664062 C 211.921875 180.628906 211.953125 180.617188 211.996094 180.628906 L 213.339844 180.996094 C 213.539062 181.054688 213.679688 180.992188 213.765625 180.804688 L 218.691406 168.902344 C 218.722656 168.820312 218.722656 168.738281 218.683594 168.65625 C 218.644531 168.574219 218.582031 168.519531 218.492188 168.488281 L 216.59375 167.792969 C 216.554688 167.773438 216.539062 167.742188 216.558594 167.703125 C 216.570312 167.660156 216.597656 167.640625 216.640625 167.644531 L 220.933594 167.644531 C 221.054688 167.640625 221.152344 167.6875 221.222656 167.785156 C 221.292969 167.878906 221.304688 167.976562 221.257812 168.085938 L 214.8125 183.058594 C 214.761719 183.175781 214.671875 183.238281 214.546875 183.257812 Z M 223.035156 171.109375 L 219.363281 176.160156 C 219.332031 176.199219 219.296875 176.210938 219.25 176.1875 C 219.203125 176.167969 219.191406 176.132812 219.210938 176.085938 L 223.089844 167.054688 C 223.167969 166.886719 223.285156 166.753906 223.445312 166.664062 C 223.605469 166.570312 223.78125 166.53125 223.964844 166.550781 L 231.382812 167.0625 C 231.558594 167.070312 231.691406 167.148438 231.789062 167.292969 C 231.886719 167.429688 231.898438 167.574219 231.828125 167.726562 L 229.070312 174 C 229.050781 174.046875 229.015625 174.0625 228.96875 174.046875 C 228.917969 174.039062 228.898438 174.007812 228.902344 173.960938 L 229.15625 171.875 C 229.1875 171.640625 229.121094 171.4375 228.957031 171.265625 C 228.792969 171.082031 228.585938 170.988281 228.339844 170.980469 L 223.804688 170.753906 C 223.480469 170.730469 223.226562 170.847656 223.035156 171.109375 Z M 223.035156 171.109375 " fill-opacity="1" fill-rule="evenodd"/></g><g fill="#000000" fill-opacity="1"><g transform="translate(111.004947, 222.012355)"><g><path d="M 0.390625 -2.03125 L 2.078125 -2.5625 L 0.65625 -14.21875 L -1.109375 -14.359375 L -1.34375 -16.3125 L 11.59375 -17.890625 L 12.125 -13.4375 L 9.625 -13.125 L 9.234375 -15.0625 L 3.9375 -14.421875 L 4.484375 -9.953125 L 10.1875 -10.640625 L 10.484375 -8.125 L 4.78125 -7.4375 L 5.328125 -2.96875 L 7.125 -2.84375 L 7.359375 -0.890625 L 0.625 -0.078125 Z M 0.390625 -2.03125 "/></g></g></g><g fill="#000000" fill-opacity="1"><g transform="translate(127.648186, 220.054323)"><g><path d="M -0.765625 -14.390625 L -0.96875 -16.34375 L 5.765625 -17 L 5.96875 -15.046875 L 4.25 -14.53125 L 5.390625 -2.828125 L 7.171875 -2.671875 L 7.359375 -0.71875 L 0.625 -0.0625 L 0.4375 -2.015625 L 2.140625 -2.515625 L 1 -14.21875 Z M -0.765625 -14.390625 "/></g></g></g><g fill="#000000" fill-opacity="1"><g transform="translate(138.146934, 219.014497)"><g><path d="M 13.796875 -17.40625 L 14.109375 -13.0625 L 11.609375 -12.875 L 11.359375 -14.6875 L 8.34375 -14.46875 L 9.171875 -2.96875 L 10.953125 -2.765625 L 11.09375 -0.796875 L 4.328125 -0.3125 L 4.1875 -2.28125 L 5.90625 -2.734375 L 5.078125 -14.234375 L 2.078125 -14.015625 L 2.078125 -12.1875 L -0.421875 -12 L -0.734375 -16.34375 Z M 13.796875 -17.40625 "/></g></g></g><g fill="#000000" fill-opacity="1"><g transform="translate(156.129203, 217.796546)"><g/></g></g><g fill="#000000" fill-opacity="1"><g transform="translate(164.315955, 217.365566)"><g><path d="M 14.140625 -2.203125 C 13.617188 -1.660156 12.851562 -1.164062 11.84375 -0.71875 C 10.84375 -0.269531 9.5625 -0.0234375 8 0.015625 C 5.789062 0.078125 3.972656 -0.609375 2.546875 -2.046875 C 1.128906 -3.492188 0.390625 -5.398438 0.328125 -7.765625 L 0.3125 -8.328125 C 0.238281 -10.773438 0.863281 -12.785156 2.1875 -14.359375 C 3.507812 -15.929688 5.273438 -16.75 7.484375 -16.8125 C 8.765625 -16.84375 9.941406 -16.664062 11.015625 -16.28125 C 12.085938 -15.90625 12.984375 -15.378906 13.703125 -14.703125 L 13.796875 -11.40625 L 11.375 -11.34375 L 10.84375 -13.53125 C 10.539062 -13.769531 10.140625 -13.957031 9.640625 -14.09375 C 9.148438 -14.238281 8.585938 -14.300781 7.953125 -14.28125 C 6.523438 -14.25 5.425781 -13.695312 4.65625 -12.625 C 3.882812 -11.550781 3.523438 -10.160156 3.578125 -8.453125 L 3.59375 -7.859375 C 3.632812 -6.203125 4.054688 -4.882812 4.859375 -3.90625 C 5.671875 -2.9375 6.8125 -2.46875 8.28125 -2.5 C 8.9375 -2.519531 9.460938 -2.59375 9.859375 -2.71875 C 10.265625 -2.84375 10.585938 -2.984375 10.828125 -3.140625 L 10.75 -5.921875 L 8.40625 -6.03125 L 8.34375 -8.34375 L 13.96875 -8.484375 Z M 14.140625 -2.203125 "/></g></g></g><g fill="#000000" fill-opacity="1"><g transform="translate(182.005401, 216.932175)"><g><path d="M 11.21875 -7.140625 L 5.6875 -7.171875 L 5.671875 -2.5 L 10.953125 -2.484375 L 11.09375 -4.421875 L 13.59375 -4.421875 L 13.578125 0.046875 L 0.625 0 L 0.625 -1.96875 L 2.390625 -2.28125 L 2.421875 -14.03125 L 0.671875 -14.390625 L 0.6875 -16.359375 L 2.4375 -16.34375 L 13.609375 -16.3125 L 13.59375 -11.828125 L 11.078125 -11.828125 L 10.9375 -13.796875 L 5.703125 -13.8125 L 5.6875 -9.703125 L 11.21875 -9.671875 Z M 11.21875 -7.140625 "/></g></g></g><g fill="#000000" fill-opacity="1"><g transform="translate(199.177601, 217.008781)"><g><path d="M 17.9375 -15.71875 L 17.859375 -13.75 L 16.09375 -13.46875 L 15.578125 0.5625 L 12.3125 0.453125 L 6.125 -10.8125 L 6.046875 -10.796875 L 5.734375 -2.09375 L 7.484375 -1.703125 L 7.40625 0.265625 L 0.625 0.015625 L 0.703125 -1.953125 L 2.453125 -2.203125 L 2.890625 -13.9375 L 1.140625 -14.359375 L 1.21875 -16.328125 L 2.96875 -16.25 L 6.25 -16.140625 L 12.4375 -4.90625 L 12.5 -4.90625 L 12.828125 -13.578125 L 11.09375 -13.984375 L 11.171875 -15.953125 L 16.171875 -15.78125 Z M 17.9375 -15.71875 "/></g></g></g><g fill="#000000" fill-opacity="1"><g transform="translate(219.454626, 217.843145)"><g><path d="M 1.53125 -14.3125 L 1.65625 -16.28125 L 8.40625 -15.859375 L 8.28125 -13.890625 L 6.515625 -13.65625 L 5.765625 -1.9375 L 7.5 -1.5 L 7.375 0.46875 L 0.625 0.046875 L 0.75 -1.921875 L 2.515625 -2.140625 L 3.265625 -13.859375 Z M 1.53125 -14.3125 "/></g></g></g><g fill="#000000" fill-opacity="1"><g transform="translate(229.972831, 218.479364)"><g><path d="M 8.65625 -15.65625 L 8.46875 -13.6875 L 6.71875 -13.5 L 5.953125 -5 C 5.847656 -3.925781 6.054688 -3.09375 6.578125 -2.5 C 7.109375 -1.914062 7.878906 -1.578125 8.890625 -1.484375 C 9.910156 -1.390625 10.734375 -1.582031 11.359375 -2.0625 C 11.992188 -2.539062 12.363281 -3.320312 12.46875 -4.40625 L 13.234375 -12.90625 L 11.5 -13.40625 L 11.6875 -15.375 L 18.453125 -14.765625 L 18.265625 -12.796875 L 16.5 -12.609375 L 15.734375 -4.109375 C 15.566406 -2.273438 14.835938 -0.914062 13.546875 -0.03125 C 12.253906 0.84375 10.628906 1.191406 8.671875 1.015625 C 6.722656 0.835938 5.191406 0.203125 4.078125 -0.890625 C 2.972656 -1.984375 2.503906 -3.445312 2.671875 -5.28125 L 3.4375 -13.78125 L 1.71875 -14.28125 L 1.90625 -16.25 L 3.640625 -16.09375 L 6.921875 -15.8125 Z M 8.65625 -15.65625 "/></g></g></g><g fill="#000000" fill-opacity="1"><g transform="translate(249.750801, 220.324226)"><g><path d="M 14.3125 -9.484375 L 11.859375 -9.78125 L 11.71875 -12.0625 C 11.457031 -12.269531 11.0625 -12.472656 10.53125 -12.671875 C 10.007812 -12.867188 9.445312 -13.003906 8.84375 -13.078125 C 7.9375 -13.191406 7.21875 -13.085938 6.6875 -12.765625 C 6.15625 -12.453125 5.851562 -12 5.78125 -11.40625 C 5.71875 -10.851562 5.914062 -10.367188 6.375 -9.953125 C 6.84375 -9.535156 7.675781 -9.0625 8.875 -8.53125 C 10.613281 -7.8125 11.894531 -6.984375 12.71875 -6.046875 C 13.550781 -5.109375 13.882812 -3.976562 13.71875 -2.65625 C 13.550781 -1.257812 12.863281 -0.226562 11.65625 0.4375 C 10.457031 1.101562 8.960938 1.328125 7.171875 1.109375 C 5.878906 0.953125 4.738281 0.601562 3.75 0.0625 C 2.769531 -0.46875 1.972656 -1.132812 1.359375 -1.9375 L 1.78125 -5.3125 L 4.296875 -5.015625 L 4.375 -2.671875 C 4.664062 -2.367188 5.078125 -2.09375 5.609375 -1.84375 C 6.148438 -1.601562 6.769531 -1.441406 7.46875 -1.359375 C 8.351562 -1.242188 9.050781 -1.335938 9.5625 -1.640625 C 10.070312 -1.953125 10.363281 -2.414062 10.4375 -3.03125 C 10.507812 -3.664062 10.347656 -4.195312 9.953125 -4.625 C 9.566406 -5.050781 8.835938 -5.5 7.765625 -5.96875 C 5.910156 -6.75 4.535156 -7.585938 3.640625 -8.484375 C 2.742188 -9.378906 2.375 -10.488281 2.53125 -11.8125 C 2.695312 -13.132812 3.390625 -14.140625 4.609375 -14.828125 C 5.828125 -15.523438 7.285156 -15.789062 8.984375 -15.625 C 10.234375 -15.46875 11.34375 -15.132812 12.3125 -14.625 C 13.289062 -14.125 14.09375 -13.515625 14.71875 -12.796875 Z M 14.3125 -9.484375 "/></g></g></g><g fill="#555555" fill-opacity="1"><g transform="translate(140.699951, 238.517519)"><g><path d="M 4.34375 -9.078125 C 5.6875 -9.078125 6.867188 -8.742188 7.890625 -8.078125 L 7.03125 -6.296875 C 6.5625 -6.566406 6.054688 -6.789062 5.515625 -6.96875 C 4.972656 -7.144531 4.519531 -7.234375 4.15625 -7.234375 C 3.5 -7.234375 3.171875 -7.015625 3.171875 -6.578125 C 3.171875 -6.296875 3.332031 -6.066406 3.65625 -5.890625 C 3.976562 -5.722656 4.375 -5.578125 4.84375 -5.453125 C 5.3125 -5.328125 5.773438 -5.175781 6.234375 -5 C 6.703125 -4.832031 7.097656 -4.550781 7.421875 -4.15625 C 7.753906 -3.757812 7.921875 -3.265625 7.921875 -2.671875 C 7.921875 -1.804688 7.582031 -1.128906 6.90625 -0.640625 C 6.226562 -0.160156 5.367188 0.078125 4.328125 0.078125 C 3.578125 0.078125 2.835938 -0.046875 2.109375 -0.296875 C 1.390625 -0.554688 0.757812 -0.910156 0.21875 -1.359375 L 1.109375 -3.125 C 1.554688 -2.726562 2.085938 -2.398438 2.703125 -2.140625 C 3.316406 -1.890625 3.863281 -1.765625 4.34375 -1.765625 C 4.71875 -1.765625 5.003906 -1.832031 5.203125 -1.96875 C 5.410156 -2.101562 5.515625 -2.296875 5.515625 -2.546875 C 5.515625 -2.796875 5.394531 -3.003906 5.15625 -3.171875 C 4.925781 -3.335938 4.632812 -3.460938 4.28125 -3.546875 C 3.9375 -3.628906 3.554688 -3.738281 3.140625 -3.875 C 2.734375 -4.007812 2.351562 -4.15625 2 -4.3125 C 1.644531 -4.476562 1.347656 -4.738281 1.109375 -5.09375 C 0.878906 -5.445312 0.765625 -5.875 0.765625 -6.375 C 0.765625 -7.195312 1.09375 -7.851562 1.75 -8.34375 C 2.40625 -8.832031 3.269531 -9.078125 4.34375 -9.078125 Z M 4.34375 -9.078125 "/></g></g></g><g fill="#555555" fill-opacity="1"><g transform="translate(151.081878, 238.517519)"><g><path d="M 3.1875 0 L 0.890625 0 L 0.890625 -8.984375 L 3.1875 -8.984375 Z M 3.1875 0 "/></g></g></g><g fill="#555555" fill-opacity="1"><g transform="translate(157.280556, 238.517519)"><g><path d="M 9.1875 0 L 7.171875 0 L 3.046875 -5.53125 L 3.046875 0 L 0.890625 0 L 0.890625 -8.984375 L 2.90625 -8.984375 L 7.0625 -3.4375 L 7.0625 -8.984375 L 9.1875 -8.984375 Z M 9.1875 0 "/></g></g></g><g fill="#555555" fill-opacity="1"><g transform="translate(169.484635, 238.517519)"><g><path d="M 5.109375 -9.0625 C 5.773438 -9.0625 6.429688 -8.921875 7.078125 -8.640625 C 7.722656 -8.367188 8.269531 -8.003906 8.71875 -7.546875 L 7.40625 -5.984375 C 7.113281 -6.335938 6.765625 -6.617188 6.359375 -6.828125 C 5.953125 -7.035156 5.546875 -7.140625 5.140625 -7.140625 C 4.429688 -7.140625 3.835938 -6.890625 3.359375 -6.390625 C 2.878906 -5.890625 2.640625 -5.273438 2.640625 -4.546875 C 2.640625 -3.785156 2.878906 -3.15625 3.359375 -2.65625 C 3.835938 -2.15625 4.429688 -1.90625 5.140625 -1.90625 C 5.515625 -1.90625 5.90625 -2 6.3125 -2.1875 C 6.71875 -2.375 7.082031 -2.628906 7.40625 -2.953125 L 8.734375 -1.546875 C 8.242188 -1.046875 7.664062 -0.644531 7 -0.34375 C 6.34375 -0.0390625 5.6875 0.109375 5.03125 0.109375 C 3.675781 0.109375 2.550781 -0.332031 1.65625 -1.21875 C 0.757812 -2.101562 0.3125 -3.203125 0.3125 -4.515625 C 0.3125 -5.804688 0.765625 -6.882812 1.671875 -7.75 C 2.585938 -8.625 3.734375 -9.0625 5.109375 -9.0625 Z M 5.109375 -9.0625 "/></g></g></g><g fill="#555555" fill-opacity="1"><g transform="translate(180.482506, 238.517519)"><g><path d="M 7.921875 -7.1875 L 3.1875 -7.1875 L 3.1875 -5.40625 L 7.46875 -5.40625 L 7.46875 -3.609375 L 3.1875 -3.609375 L 3.1875 -1.796875 L 8.0625 -1.796875 L 8.0625 0 L 0.890625 0 L 0.890625 -8.984375 L 7.921875 -8.984375 Z M 7.921875 -7.1875 "/></g></g></g><g fill="#555555" fill-opacity="1"><g transform="translate(191.249405, 238.517519)"><g/></g></g><g fill="#555555" fill-opacity="1"><g transform="translate(196.344532, 238.517519)"><g><path d="M 3.921875 -9.078125 C 4.816406 -9.078125 5.550781 -8.859375 6.125 -8.421875 C 6.695312 -7.992188 6.984375 -7.429688 6.984375 -6.734375 C 6.984375 -5.898438 6.421875 -4.90625 5.296875 -3.75 L 3.46875 -1.8125 L 7.265625 -1.8125 L 7.265625 0 L 0.53125 0 L 0.53125 -1.46875 L 3.75 -4.875 C 4.320312 -5.46875 4.609375 -5.976562 4.609375 -6.40625 C 4.609375 -6.664062 4.515625 -6.867188 4.328125 -7.015625 C 4.148438 -7.160156 3.90625 -7.234375 3.59375 -7.234375 C 2.84375 -7.234375 2.023438 -6.851562 1.140625 -6.09375 L 0.28125 -7.734375 C 1.476562 -8.628906 2.691406 -9.078125 3.921875 -9.078125 Z M 3.921875 -9.078125 "/></g></g></g><g fill="#555555" fill-opacity="1"><g transform="translate(206.161857, 238.517519)"><g><path d="M 4.515625 -9.0625 C 5.785156 -9.0625 6.765625 -8.664062 7.453125 -7.875 C 8.140625 -7.09375 8.484375 -5.96875 8.484375 -4.5 C 8.484375 -3.03125 8.140625 -1.898438 7.453125 -1.109375 C 6.765625 -0.328125 5.785156 0.0625 4.515625 0.0625 C 3.234375 0.0625 2.25 -0.328125 1.5625 -1.109375 C 0.875 -1.898438 0.53125 -3.03125 0.53125 -4.5 C 0.53125 -5.96875 0.875 -7.09375 1.5625 -7.875 C 2.25 -8.664062 3.234375 -9.0625 4.515625 -9.0625 Z M 4.515625 -7.390625 C 3.929688 -7.390625 3.507812 -7.164062 3.25 -6.71875 C 3 -6.269531 2.875 -5.53125 2.875 -4.5 C 2.875 -3.476562 3 -2.738281 3.25 -2.28125 C 3.507812 -1.832031 3.929688 -1.609375 4.515625 -1.609375 C 5.078125 -1.609375 5.488281 -1.832031 5.75 -2.28125 C 6.007812 -2.738281 6.140625 -3.476562 6.140625 -4.5 C 6.140625 -5.519531 6.007812 -6.253906 5.75 -6.703125 C 5.488281 -7.160156 5.078125 -7.390625 4.515625 -7.390625 Z M 4.515625 -7.390625 "/></g></g></g><g fill="#555555" fill-opacity="1"><g transform="translate(217.300882, 238.517519)"><g><path d="M 3.921875 -9.078125 C 4.816406 -9.078125 5.550781 -8.859375 6.125 -8.421875 C 6.695312 -7.992188 6.984375 -7.429688 6.984375 -6.734375 C 6.984375 -5.898438 6.421875 -4.90625 5.296875 -3.75 L 3.46875 -1.8125 L 7.265625 -1.8125 L 7.265625 0 L 0.53125 0 L 0.53125 -1.46875 L 3.75 -4.875 C 4.320312 -5.46875 4.609375 -5.976562 4.609375 -6.40625 C 4.609375 -6.664062 4.515625 -6.867188 4.328125 -7.015625 C 4.148438 -7.160156 3.90625 -7.234375 3.59375 -7.234375 C 2.84375 -7.234375 2.023438 -6.851562 1.140625 -6.09375 L 0.28125 -7.734375 C 1.476562 -8.628906 2.691406 -9.078125 3.921875 -9.078125 Z M 3.921875 -9.078125 "/></g></g></g><g fill="#555555" fill-opacity="1"><g transform="translate(227.118207, 238.517519)"><g><path d="M 4.109375 -5.34375 L 4.53125 -5.265625 C 5.207031 -5.171875 5.75 -4.90625 6.15625 -4.46875 C 6.5625 -4.039062 6.765625 -3.492188 6.765625 -2.828125 C 6.765625 -1.960938 6.445312 -1.253906 5.8125 -0.703125 C 5.1875 -0.160156 4.359375 0.109375 3.328125 0.109375 C 2.710938 0.109375 2.101562 0.0078125 1.5 -0.1875 C 0.894531 -0.382812 0.382812 -0.648438 -0.03125 -0.984375 L 0.890625 -2.71875 C 1.566406 -1.988281 2.316406 -1.625 3.140625 -1.625 C 3.585938 -1.625 3.929688 -1.726562 4.171875 -1.9375 C 4.410156 -2.144531 4.53125 -2.429688 4.53125 -2.796875 C 4.53125 -3.546875 4.0625 -3.921875 3.125 -3.921875 L 1.6875 -3.921875 L 1.6875 -5.140625 L 3.6875 -7.21875 L 0.421875 -7.21875 L 0.421875 -8.96875 L 6.34375 -8.96875 L 6.34375 -7.671875 Z M 4.109375 -5.34375 "/></g></g></g></svg>