<?xml version="1.0" encoding="utf-8"?>
<!-- Generator: Adobe Illustrator 21.0.2, SVG Export Plug-In . SVG Version: 6.00 Build 0)  -->
<svg version="1.1" id="Layer_1" xmlns="http://www.w3.org/2000/svg" xmlns:xlink="http://www.w3.org/1999/xlink" x="0px" y="0px"
	 viewBox="0 0 500 500" style="enable-background:new 0 0 500 500;" xml:space="preserve">
<style type="text/css">
	.st0{clip-path:url(#SVGID_2_);}
	.st1{fill:#FF0000;}
	.st2{fill:#FFFFFF;}
	.st3{fill:#D3D3D3;}
</style>
<g>
	<defs>
		<rect id="SVGID_1_" x="-298.1" y="5.5" width="137" height="63"/>
	</defs>
	<clipPath id="SVGID_2_">
		<use xlink:href="#SVGID_1_"  style="overflow:visible;"/>
	</clipPath>
	<g class="st0">
		<path class="st1" d="M-162.8,66H-178l9.6-21.7c0.3-0.7,0.3-1.3,0-1.9l-9.8-20.6c-0.4-0.8-1-1.3-1.9-1.4l-14.1-2.6
			c-0.4-0.1-0.7-0.1-1.1,0l-17.6,3.5c-0.4,0.1-0.8,0.3-1.2,0.5c-0.3,0.3-0.6,0.7-0.8,1.1l-4.6,12.7l-9.2-1l-10.7-24.2
			c-0.2-0.5-0.5-0.9-0.9-1.2c-0.4-0.3-0.8-0.5-1.3-0.6L-258,5.6c-0.4-0.1-0.8-0.1-1.2,0l-20.3,4.4c-0.5,0.1-1,0.3-1.4,0.7
			c-0.4,0.4-0.7,0.8-0.9,1.3l-9.1,26.8c-0.2,0.7-0.2,1.4,0,2l9.2,25.2l0,0h-14.8c-0.3,0-0.6,0.1-0.9,0.4c-0.2,0.2-0.4,0.5-0.4,0.9
			s0.1,0.6,0.4,0.9c0.2,0.2,0.5,0.4,0.9,0.4h133.7c0.3,0,0.6-0.1,0.9-0.4c0.2-0.2,0.4-0.5,0.4-0.9s-0.1-0.6-0.4-0.9
			C-162.2,66.1-162.5,66-162.8,66z M-191.3,20.7c0.2-0.2,0.4-0.3,0.7-0.2l9.8,1.7c0.4,0.1,0.7,0.3,0.8,0.6l5.1,10.8
			c0,0.1,0,0.1-0.1,0.1c-0.1,0-0.1,0-0.2,0l-2.9-3.8c-0.2-0.3-0.5-0.4-0.8-0.4l-4.8-0.4c-0.4,0-0.7,0.1-1,0.4
			c-0.3,0.3-0.4,0.6-0.3,0.9l2.2,9.3c0,0.1,0,0.1-0.1,0.1c-0.1,0-0.1,0-0.1-0.1l-8.5-18.4C-191.5,21.1-191.5,20.9-191.3,20.7z
			 M-194.7,20c0.1-0.2,0.2-0.2,0.4-0.2c0.2,0,0.3,0.1,0.4,0.3l9.2,20c0.1,0.2,0.1,0.3-0.1,0.5c-0.1,0.1-0.3,0.2-0.5,0.1l-4.9-1.5
			c-0.1,0-0.1-0.1-0.1-0.1c0-0.1,0-0.1,0.1-0.1l0.9-0.1c0.2,0,0.3-0.1,0.3-0.2c0.1-0.1,0.1-0.3,0-0.4l-6.9-13.9
			c-0.1-0.1-0.2-0.2-0.3-0.2c-0.1,0-0.3,0-0.4,0l-0.9,0.5c-0.1,0-0.1,0-0.1,0c0,0-0.1-0.1,0-0.1L-194.7,20z M-228.1,38.5
			c0.2-0.5,0.3-1.1,0.2-1.7l21.9,2.3c1.8,0.2,2.5,1.5,2.7,3.1c0,0.1,0,0.1-0.1,0.1c-0.1,0-0.1,0-0.2,0c-0.6-0.5-1.3-0.7-2.1-0.7
			l-22.9-2L-228.1,38.5z M-205.3,46.5L-205.3,46.5c0.5,0.1,0.9,0,1.3-0.2c0.1,0,0.1,0,0.2,0c0.1,0,0.1,0.1,0,0.2
			c-0.4,0.8-0.9,1.5-1.7,1.4l-0.1,0l-25.6-1.7l0.6-1.5L-205.3,46.5z M-254.6,9.2c0.2-0.3,0.5-0.3,0.8-0.3l11.3,2.1
			c0.5,0.1,0.8,0.3,1,0.8l5.9,13.4c0,0.1,0,0.1,0,0.2c-0.1,0-0.1,0-0.2-0.1l-3.4-4.7c-0.2-0.3-0.6-0.5-1-0.5l-5.5-0.5
			c-0.2,0-0.4,0-0.6,0.1c-0.2,0.1-0.4,0.2-0.5,0.4c-0.1,0.2-0.2,0.3-0.3,0.5c-0.1,0.2-0.1,0.4,0,0.6l2.5,11.6c0,0.1,0,0.1-0.1,0.2
			c-0.1,0-0.1,0-0.2-0.1l-9.8-22.9C-254.9,9.7-254.8,9.4-254.6,9.2z M-258.6,8.3c0.1-0.2,0.3-0.3,0.5-0.3c0.2,0,0.4,0.1,0.5,0.3
			l10.6,24.9c0.1,0.2,0.1,0.4-0.1,0.6c-0.2,0.2-0.3,0.2-0.6,0.1l-5.6-1.9c-0.1,0-0.1-0.1-0.1-0.1c0-0.1,0-0.1,0.1-0.1l1.1-0.1
			c0.2,0,0.3-0.1,0.4-0.3c0.1-0.2,0.1-0.3,0-0.5l-8-17.2c-0.1-0.1-0.2-0.2-0.3-0.3c-0.2,0-0.3,0-0.4,0l-1.1,0.6c-0.1,0-0.1,0-0.2,0
			c0,0-0.1-0.1,0-0.2L-258.6,8.3z M-286.4,40.9c0,0.1,0,0.1-0.1,0.2c-0.1,0-0.1,0-0.2-0.1l-0.7-1.5c-0.2-0.3-0.2-0.7,0-1l6.7-19.6
			c0.2-0.5,0.5-0.8,1.1-0.9l10.3-1.7c0.5-0.1,0.9,0,1.3,0.2c0.4,0.2,0.7,0.6,0.9,1l7.3,17.4c0.2,0.5,0.2,0.9,0,1.4l-1.2,3.3
			c0,0.1-0.1,0.1-0.2,0.1c-0.1,0-0.1-0.1-0.1-0.1c-0.1-2.3-2-4.4-4.2-3.8c-1.2,0.4-2.1,1.7-2.6,3.1c-0.7,2-1.7,4.5-4.4,5.4
			c-0.1,0-0.1,0-0.2-0.1c0-0.1,0-0.1,0-0.2c0.7-0.5,1.3-1.2,1.8-2c0.8-1.6,1.2-3.4,1.2-5.2s-0.4-3.6-1.2-5.2
			c-0.7-1.2-1.7-2.3-3.1-2.6c-0.2,0-0.4-0.1-0.6-0.1h-5.3c-0.2,0-0.4,0-0.6,0.1c-1.4,0.3-2.5,1.4-3.1,2.6c-0.8,1.6-1.3,3.4-1.2,5.2
			c0,0.1,0,0.3,0,0.4c0,0.1,0,0.1-0.1,0.1C-286,37.7-286.7,38.9-286.4,40.9z M-276.7,42.1c0.6-0.8,1-1.7,1.2-2.7
			c0-0.1,0.1-0.1,0.1-0.1h3.2c0,0,0.1,0,0.1,0.1c0,0,0,0.1,0,0.1c-0.1,0.4-0.3,0.8-0.5,1.2c-0.4,0.6-1,1.4-1.8,1.6
			c-0.1,0-0.2,0-0.2,0h-2c-0.1,0-0.1,0-0.1-0.1C-276.7,42.2-276.7,42.2-276.7,42.1L-276.7,42.1z M-276.7,31c0-0.1,0.1-0.1,0.1-0.1h2
			c0.1,0,0.2,0,0.2,0c0.8,0.1,1.4,1,1.8,1.6c0.4,0.7,0.6,1.3,0.7,2.1c0,0,0,0.1,0,0.1c0,0-0.1,0.1-0.1,0.1h-3.2
			c-0.1,0-0.1,0-0.1-0.1c-0.2-1.3-0.7-2.4-1.4-3.5C-276.7,31.1-276.7,31.1-276.7,31z M-282,35.1c-0.3,0-0.7,0.1-0.9,0.4
			c0,0-0.1,0-0.2,0c-0.1,0-0.1-0.1-0.1-0.1c0.3-2.7,1.6-4.7,3.1-4.7c1.8,0,3.2,2.7,3.2,6s-1.4,6-3.2,6c-0.4,0-0.7-0.1-1-0.3
			c0,0-0.1-0.1-0.1-0.1c0,0,0-0.1,0-0.1c0.6-0.6,1-1.9,1-3.3C-280,36.8-280.9,35.1-282,35.1z M-260.1,65.3c-0.1,0.1-0.1,0.1-0.2,0
			l-5-3.7c-0.5-0.4-1-0.6-1.7-0.5l-10.6,0.2c-0.4,0-0.8,0.1-1.1,0.3s-0.6,0.5-0.7,0.9l-1,2.2c0,0.1-0.1,0.1-0.2,0.1
			c-0.1,0-0.1-0.1-0.1-0.1l0.3-3.3c0-0.3,0-0.6-0.1-0.8l-5.2-14c0-0.1,0-0.1,0.1-0.2c0.1,0,0.1,0,0.2,0.1l6,12.3
			c0.2,0.4,0.4,0.6,0.8,0.8c0.3,0.2,0.7,0.3,1.1,0.3l9.5-0.2c0.6,0,1.1-0.2,1.5-0.5s0.8-0.7,1-1.3l8-21.5c0.3-0.7,0.2-1.3,0-2
			l-7.8-18.5c-0.1-0.3-0.3-0.5-0.5-0.8c-0.2-0.2-0.4-0.4-0.7-0.6c-0.3-0.1-0.5-0.2-0.8-0.3c-0.3-0.1-0.6-0.1-0.9,0l-10.4,1.7
			c-0.2,0-0.4,0-0.5,0c-0.2,0-0.3-0.1-0.5-0.2c-0.1-0.1-0.3-0.3-0.4-0.4c-0.1-0.2-0.1-0.3-0.2-0.5l-0.2-2.1c0-0.1,0-0.1,0.1-0.1
			c0.1,0,0.1,0,0.2,0.1l0.6,1.1c0.1,0.3,0.3,0.4,0.6,0.6c0.3,0.1,0.5,0.2,0.8,0.1l11.7-2c0.5-0.1,0.9-0.3,1.3-0.6l4.8-4.1
			c0.1,0,0.1,0,0.2,0c0.1,0.1,0.1,0.1,0,0.2l-2.9,4.7c-0.2,0.4-0.4,0.8-0.4,1.2c0,0.4,0,0.8,0.2,1.2l7.5,17.8
			c0.3,0.8,0.9,1.4,1.8,1.6l5.6,1.4c0.1,0,0.1,0.1,0.1,0.2c0,0.1-0.1,0.1-0.2,0.1h-4.9c-0.6,0-1.1,0.1-1.5,0.5
			c-0.5,0.3-0.8,0.7-1,1.3l-7.8,20.6c-0.2,0.4-0.2,0.9-0.2,1.3c0.1,0.5,0.2,0.9,0.5,1.2l3.2,4.2C-260.1,65.2-260.1,65.2-260.1,65.3z
			 M-257.2,63.9c-0.2,0-0.4,0-0.5-0.2l-3.6-4c0-0.1-0.1-0.1,0-0.2c0-0.1,0.1-0.1,0.2-0.1l2.1,0.6c0.1,0,0.3,0,0.4,0s0.2-0.2,0.3-0.3
			l7.6-19.7c0.1-0.1,0-0.3,0-0.4c-0.1-0.1-0.2-0.2-0.3-0.3l-2.9-1.2c-0.1,0-0.1-0.1-0.1-0.2c0-0.1,0.1-0.1,0.1-0.1h6.6
			c0.1,0,0.2,0,0.3,0.1c0.1,0,0.1,0.1,0.2,0.2c0.1,0.1,0.1,0.2,0.1,0.2c0,0.1,0,0.2,0,0.3l-9.9,24.8
			C-256.9,63.8-257,63.9-257.2,63.9z M-244.2,43.8l-5.7,8.4c0,0.1-0.1,0.1-0.2,0.1c-0.1,0-0.1-0.1-0.1-0.2l6-15
			c0.1-0.3,0.3-0.5,0.5-0.6c0.3-0.2,0.5-0.2,0.8-0.2l11.4,0.9c0.1,0,0.3,0,0.4,0.1c0.1,0.1,0.2,0.2,0.3,0.3s0.1,0.2,0.1,0.4
			c0,0.1,0,0.3-0.1,0.4l-4.3,10.4c0,0.1-0.1,0.1-0.2,0.1c-0.1,0-0.1-0.1-0.1-0.1l0.4-3.5c0-0.2,0-0.4,0-0.5
			c-0.1-0.2-0.1-0.3-0.3-0.5c-0.1-0.1-0.3-0.3-0.4-0.3c-0.2-0.1-0.3-0.1-0.5-0.1l-7-0.4C-243.5,43.2-243.9,43.4-244.2,43.8z
			 M-239.4,66l7.4-18l10.2,0.7L-215,66H-239.4z M-196.1,65.8c0,0-0.1,0-0.2,0l-4.3-3c-0.4-0.3-0.9-0.4-1.4-0.4l-9.1,0.2
			c-0.3,0-0.6,0.1-0.9,0.3c-0.3,0.2-0.5,0.4-0.6,0.7l-0.8,1.8c0,0.1-0.1,0.1-0.1,0.1s-0.1-0.1-0.1-0.1l0.2-2.7c0-0.2,0-0.5-0.1-0.7
			l-4.5-11.3c0-0.1,0-0.1,0.1-0.1s0.1,0,0.2,0.1l5.2,9.9c0.2,0.3,0.4,0.5,0.7,0.7c0.3,0.2,0.6,0.2,0.9,0.2l8.2-0.2
			c0.5,0,0.9-0.1,1.3-0.4c0.4-0.3,0.7-0.6,0.8-1l6.9-17.3c0.2-0.5,0.2-1.1,0-1.6l-6.8-14.8c-0.2-0.5-0.6-0.8-1-1.1
			c-0.5-0.2-1-0.3-1.5-0.2l-9.1,1.4c-0.3,0.1-0.6,0-0.9-0.2c-0.3-0.2-0.4-0.4-0.4-0.8l-0.2-1.7c0-0.1,0-0.1,0.1-0.1
			c0.1,0,0.1,0,0.1,0.1l0.5,0.9c0.1,0.2,0.3,0.4,0.5,0.5c0.2,0.1,0.5,0.1,0.7,0.1l10.2-1.6c0.4-0.1,0.8-0.2,1.1-0.5l4.1-3.3
			c0.1,0,0.1,0,0.2,0c0.1,0,0.1,0.1,0,0.1l-2.5,3.8c-0.2,0.3-0.3,0.6-0.3,1c0,0.3,0,0.7,0.2,1l6.5,14.3c0.3,0.7,0.8,1.1,1.6,1.3
			l4.9,1.1c0.1,0,0.1,0,0.1,0.1c0,0.1,0,0.1-0.1,0.1h-4.2c-0.5,0-0.9,0.1-1.3,0.4s-0.7,0.6-0.9,1l-6.8,16.6
			c-0.1,0.3-0.2,0.7-0.1,1.1c0.1,0.4,0.2,0.7,0.5,1l2.8,3.4C-196,65.7-196.1,65.8-196.1,65.8z M-193.6,64.7c-0.2,0-0.3,0-0.4-0.1
			l-3.1-3.2c0,0,0-0.1,0-0.1c0,0,0.1-0.1,0.1,0l1.8,0.5c0.3,0.1,0.5,0,0.6-0.3l6.6-15.9c0-0.1,0-0.2,0-0.3c-0.1-0.1-0.1-0.2-0.3-0.2
			l-2.5-0.9c-0.1,0-0.1-0.1,0-0.1c0-0.1,0.1-0.1,0.1-0.1h5.7c0.2,0,0.3,0.1,0.4,0.2c0.1,0.1,0.1,0.3,0,0.4l-8.6,20
			C-193.3,64.6-193.4,64.7-193.6,64.7z M-182.3,48.5l-4.9,6.7c0,0.1-0.1,0.1-0.2,0c-0.1,0-0.1-0.1-0.1-0.1l5.2-12
			c0.1-0.2,0.3-0.4,0.5-0.5c0.2-0.1,0.4-0.2,0.7-0.2l9.9,0.7c0.2,0,0.4,0.1,0.5,0.3c0.1,0.2,0.1,0.4,0.1,0.6l-3.7,8.4
			c0,0.1-0.1,0.1-0.1,0.1c-0.1,0-0.1-0.1-0.1-0.1l0.3-2.8c0-0.3,0-0.6-0.3-0.8c-0.2-0.2-0.5-0.4-0.8-0.4l-6-0.3
			C-181.7,48-182,48.2-182.3,48.5z"/>
	</g>
</g>
<g>
	<g transform="translate(111.004947, 222.012355)">
		<g>
			<path class="st2" d="M-442.1-108.3l2.3-0.7l-1.9-15.5l-2.4-0.2l-0.3-2.6l17.3-2.1l0.7,5.9l-3.3,0.4l-0.5-2.6l-7.1,0.9l0.7,6
				l7.6-0.9l0.4,3.4l-7.6,0.9l0.7,6l2.4,0.2l0.3,2.6l-9,1.1L-442.1-108.3z"/>
		</g>
	</g>
</g>
<g>
	<g transform="translate(127.648186, 220.054323)">
		<g>
			<path class="st2" d="M-438.1-125.5l-0.3-2.6l9-0.9l0.3,2.6l-2.3,0.7l1.5,15.6l2.4,0.2l0.3,2.6l-9,0.9l-0.3-2.6l2.3-0.7l-1.5-15.6
				L-438.1-125.5z"/>
		</g>
	</g>
</g>
<g>
	<g transform="translate(138.146934, 219.014497)">
		<g>
			<path class="st2" d="M-415.2-129.8l0.4,5.8l-3.3,0.3l-0.3-2.4l-4,0.3l1.1,15.3l2.4,0.3l0.2,2.6l-9,0.6l-0.2-2.6l2.3-0.6
				l-1.1-15.3l-4,0.3v2.4l-3.3,0.3l-0.4-5.8L-415.2-129.8z"/>
		</g>
	</g>
</g>
<g>
	<g transform="translate(156.129203, 217.796546)">
	</g>
</g>
<g>
	<g transform="translate(164.315955, 217.365566)">
		<g>
			<path class="st2" d="M-406-110.1c-0.7,0.7-1.7,1.4-3.1,2c-1.3,0.6-3,0.9-5.1,1c-2.9,0.1-5.4-0.8-7.3-2.8c-1.9-1.9-2.9-4.5-3-7.6
				l0-0.8c-0.1-3.3,0.7-5.9,2.5-8c1.8-2.1,4.1-3.2,7.1-3.3c1.7,0,3.3,0.2,4.7,0.7c1.4,0.5,2.6,1.2,3.6,2.1l0.1,4.4l-3.2,0.1
				l-0.7-2.9c-0.4-0.3-0.9-0.6-1.6-0.8c-0.7-0.2-1.4-0.3-2.3-0.3c-1.9,0-3.4,0.8-4.4,2.2c-1,1.4-1.5,3.3-1.4,5.6l0,0.8
				c0.1,2.2,0.6,4,1.7,5.3c1.1,1.3,2.6,1.9,4.6,1.9c0.9,0,1.6-0.1,2.1-0.3c0.5-0.2,1-0.4,1.3-0.6l-0.1-3.7l-3.1-0.1l-0.1-3.1
				l7.5-0.2L-406-110.1z"/>
		</g>
	</g>
</g>
<g>
	<g transform="translate(182.005401, 216.932175)">
		<g>
			<path class="st2" d="M-404-116.8l-7.4,0l0,6.2l7,0l0.2-2.6h3.3l0,6l-17.3-0.1v-2.6l2.4-0.4l0-15.7l-2.3-0.5l0-2.6l2.3,0l14.9,0
				l0,6h-3.4l-0.2-2.6l-7,0l0,5.5l7.4,0V-116.8z"/>
		</g>
	</g>
</g>
<g>
	<g transform="translate(199.177601, 217.008781)">
		<g>
			<path class="st2" d="M-389.3-128.2l-0.1,2.6l-2.4,0.4l-0.7,18.7l-4.4-0.1l-8.3-15l-0.1,0l-0.4,11.6l2.3,0.5l-0.1,2.6l-9-0.3
				l0.1-2.6l2.3-0.3l0.6-15.6l-2.3-0.6l0.1-2.6l2.3,0.1l4.4,0.1l8.3,15h0.1l0.4-11.6l-2.3-0.5l0.1-2.6l6.7,0.2L-389.3-128.2z"/>
		</g>
	</g>
</g>
<g>
	<g transform="translate(219.454626, 217.843145)">
		<g>
			<path class="st2" d="M-404.5-126.1l0.2-2.6l9,0.6l-0.2,2.6l-2.4,0.3l-1,15.6l2.3,0.6l-0.2,2.6l-9-0.6l0.2-2.6l2.4-0.3l1-15.6
				L-404.5-126.1z"/>
		</g>
	</g>
</g>
<g>
	<g transform="translate(229.972831, 218.479364)">
		<g>
			<path class="st2" d="M-391.4-127.7l-0.3,2.6l-2.3,0.3l-1,11.3c-0.1,1.4,0.1,2.5,0.8,3.3c0.7,0.8,1.7,1.2,3.1,1.4
				c1.4,0.1,2.5-0.1,3.3-0.8c0.8-0.6,1.3-1.7,1.5-3.1l1-11.3l-2.3-0.7l0.3-2.6l9,0.8l-0.3,2.6l-2.4,0.3l-1,11.3
				c-0.2,2.4-1.2,4.3-2.9,5.4c-1.7,1.2-3.9,1.6-6.5,1.4c-2.6-0.2-4.6-1.1-6.1-2.5c-1.5-1.5-2.1-3.4-1.9-5.9l1-11.3l-2.3-0.7l0.3-2.6
				l2.3,0.2l4.4,0.4L-391.4-127.7z"/>
		</g>
	</g>
</g>
<g>
	<g transform="translate(249.750801, 220.324226)">
		<g>
			<path class="st2" d="M-377.3-118.8l-3.3-0.4l-0.2-3c-0.3-0.3-0.9-0.5-1.6-0.8c-0.7-0.3-1.4-0.4-2.3-0.5c-1.2-0.2-2.2,0-2.9,0.4
				c-0.7,0.4-1.1,1-1.2,1.8c-0.1,0.7,0.2,1.4,0.8,1.9c0.6,0.6,1.7,1.2,3.3,1.9c2.3,1,4,2.1,5.1,3.3c1.1,1.3,1.6,2.8,1.3,4.5
				c-0.2,1.9-1.1,3.2-2.8,4.1c-1.6,0.9-3.6,1.2-6,0.9c-1.7-0.2-3.2-0.7-4.6-1.4c-1.3-0.7-2.4-1.6-3.2-2.7l0.6-4.5l3.4,0.4l0.1,3.1
				c0.4,0.4,0.9,0.8,1.6,1.1c0.7,0.3,1.5,0.5,2.5,0.6c1.2,0.2,2.1,0,2.8-0.4c0.7-0.4,1.1-1,1.2-1.9c0.1-0.8-0.1-1.6-0.6-2.1
				c-0.5-0.6-1.5-1.2-2.9-1.8c-2.5-1-4.3-2.2-5.5-3.4c-1.2-1.2-1.7-2.7-1.5-4.4c0.2-1.8,1.1-3.1,2.8-4c1.6-0.9,3.6-1.3,5.8-1.1
				c1.7,0.2,3.1,0.7,4.4,1.3c1.3,0.7,2.4,1.5,3.2,2.4L-377.3-118.8z"/>
		</g>
	</g>
</g>
<g>
	<g transform="translate(140.699951, 238.517519)">
		<g>
			<path class="st3" d="M-427-112.2c1.8,0,3.4,0.4,4.7,1.3l-1.1,2.4c-0.6-0.4-1.3-0.7-2-0.9c-0.7-0.2-1.3-0.4-1.8-0.4
				c-0.9,0-1.3,0.3-1.3,0.9c0,0.4,0.2,0.7,0.6,0.9c0.4,0.2,1,0.4,1.6,0.6c0.6,0.2,1.2,0.4,1.9,0.6c0.6,0.2,1.2,0.6,1.6,1.1
				c0.4,0.5,0.7,1.2,0.7,2c0,1.2-0.5,2.1-1.4,2.7c-0.9,0.6-2.1,1-3.4,1c-1,0-2-0.2-3-0.5c-1-0.3-1.8-0.8-2.5-1.4l1.2-2.4
				c0.6,0.5,1.3,1,2.1,1.3c0.8,0.3,1.5,0.5,2.2,0.5c0.5,0,0.9-0.1,1.1-0.3c0.3-0.2,0.4-0.4,0.4-0.8c0-0.3-0.2-0.6-0.5-0.8
				c-0.3-0.2-0.7-0.4-1.2-0.5c-0.5-0.1-1-0.3-1.5-0.4c-0.5-0.2-1.1-0.4-1.5-0.6c-0.5-0.2-0.9-0.6-1.2-1c-0.3-0.5-0.5-1-0.5-1.7
				c0-1.1,0.4-2,1.3-2.6C-429.5-111.9-428.4-112.2-427-112.2z"/>
		</g>
	</g>
</g>
<g>
	<g transform="translate(151.081878, 238.517519)">
		<g>
			<path class="st3" d="M-425-100.1h-3.1v-12h3.1V-100.1z"/>
		</g>
	</g>
</g>
<g>
	<g transform="translate(157.280556, 238.517519)">
		<g>
			<path class="st3" d="M-415-100.1h-2.7l-5.5-7.4v7.4h-2.9v-12h2.7l5.5,7.4v-7.4h2.8V-100.1z"/>
		</g>
	</g>
</g>
<g>
	<g transform="translate(169.484635, 238.517519)">
		<g>
			<path class="st3" d="M-416.3-112.2c0.9,0,1.8,0.2,2.6,0.6c0.9,0.4,1.6,0.8,2.2,1.5l-1.8,2.1c-0.4-0.5-0.9-0.8-1.4-1.1
				c-0.5-0.3-1.1-0.4-1.6-0.4c-0.9,0-1.7,0.3-2.4,1c-0.6,0.7-1,1.5-1,2.5c0,1,0.3,1.9,1,2.5c0.6,0.7,1.4,1,2.4,1
				c0.5,0,1-0.1,1.6-0.4c0.5-0.3,1-0.6,1.5-1l1.8,1.9c-0.7,0.7-1.4,1.2-2.3,1.6c-0.9,0.4-1.8,0.6-2.6,0.6c-1.8,0-3.3-0.6-4.5-1.8
				c-1.2-1.2-1.8-2.6-1.8-4.4c0-1.7,0.6-3.2,1.8-4.3C-419.7-111.6-418.2-112.2-416.3-112.2z"/>
		</g>
	</g>
</g>
<g>
	<g transform="translate(180.482506, 238.517519)">
		<g>
			<path class="st3" d="M-408.9-109.7h-6.3v2.4h5.7v2.4h-5.7v2.4h6.5v2.4h-9.6v-12h9.4V-109.7z"/>
		</g>
	</g>
</g>
<g>
	<g transform="translate(191.249405, 238.517519)">
	</g>
</g>
<g>
	<g transform="translate(196.344532, 238.517519)">
		<g>
			<path class="st3" d="M-409-112.2c1.2,0,2.2,0.3,2.9,0.9c0.8,0.6,1.1,1.3,1.1,2.3c0,1.1-0.8,2.4-2.3,4l-2.4,2.6h5.1v2.4h-9v-2
				l4.3-4.5c0.8-0.8,1.1-1.5,1.1-2c0-0.3-0.1-0.6-0.4-0.8c-0.2-0.2-0.6-0.3-1-0.3c-1,0-2.1,0.5-3.3,1.5l-1.1-2.2
				C-412.2-111.6-410.6-112.2-409-112.2z"/>
		</g>
	</g>
</g>
<g>
	<g transform="translate(206.161857, 238.517519)">
		<g>
			<path class="st3" d="M-404.9-112.2c1.7,0,3,0.5,3.9,1.6c0.9,1,1.4,2.5,1.4,4.5c0,2-0.5,3.5-1.4,4.5c-0.9,1-2.2,1.6-3.9,1.6
				c-1.7,0-3-0.5-3.9-1.6c-0.9-1.1-1.4-2.6-1.4-4.5c0-2,0.5-3.5,1.4-4.5C-407.9-111.7-406.6-112.2-404.9-112.2z M-404.9-110
				c-0.8,0-1.3,0.3-1.7,0.9c-0.3,0.6-0.5,1.6-0.5,3c0,1.4,0.2,2.3,0.5,3c0.3,0.6,0.9,0.9,1.7,0.9c0.8,0,1.3-0.3,1.6-0.9
				c0.3-0.6,0.5-1.6,0.5-3c0-1.4-0.2-2.3-0.5-2.9C-403.6-109.7-404.2-110-404.9-110z"/>
		</g>
	</g>
</g>
<g>
	<g transform="translate(217.300882, 238.517519)">
		<g>
			<path class="st3" d="M-402-112.2c1.2,0,2.2,0.3,2.9,0.9c0.8,0.6,1.1,1.3,1.1,2.3c0,1.1-0.8,2.4-2.3,4l-2.4,2.6h5.1v2.4h-9v-2
				l4.3-4.5c0.8-0.8,1.1-1.5,1.1-2c0-0.3-0.1-0.6-0.4-0.8c-0.2-0.2-0.6-0.3-1-0.3c-1,0-2.1,0.5-3.3,1.5l-1.1-2.2
				C-405.2-111.6-403.6-112.2-402-112.2z"/>
		</g>
	</g>
</g>
<g>
	<g transform="translate(227.118207, 238.517519)">
		<g>
			<path class="st3" d="M-398.5-107.2l0.6,0.1c0.9,0.1,1.6,0.5,2.2,1.1c0.5,0.6,0.8,1.3,0.8,2.2c0,1.2-0.4,2.1-1.3,2.8
				c-0.8,0.7-1.9,1.1-3.3,1.1c-0.8,0-1.6-0.1-2.4-0.4c-0.8-0.3-1.5-0.6-2-1.1l1.2-2.3c0.9,1,1.9,1.5,3,1.5c0.6,0,1.1-0.1,1.4-0.4
				c0.3-0.3,0.5-0.7,0.5-1.1c0-1-0.6-1.5-1.9-1.5h-1.9v-1.6l2.7-2.8h-4.4v-2.3h7.9v1.7L-398.5-107.2z"/>
		</g>
	</g>
</g>
</svg>
