<svg xmlns="http://www.w3.org/2000/svg" xmlns:xlink="http://www.w3.org/1999/xlink" width="50" zoomAndPan="magnify" viewBox="0 0 37.5 37.499999" height="50" preserveAspectRatio="xMidYMid meet" version="1.0"><defs><g/><clipPath id="66fb9fadab"><path d="M 13.613281 13.886719 L 24.113281 13.886719 L 24.113281 18.386719 L 13.613281 18.386719 Z M 13.613281 13.886719 " clip-rule="nonzero"/></clipPath></defs><g clip-path="url(#66fb9fadab)"><path fill="#ff0000" d="M 23.984375 18.207031 L 22.820312 18.207031 L 23.558594 16.65625 C 23.582031 16.609375 23.578125 16.5625 23.554688 16.515625 L 22.804688 15.046875 C 22.773438 14.992188 22.722656 14.957031 22.65625 14.945312 L 21.570312 14.765625 C 21.542969 14.757812 21.515625 14.761719 21.488281 14.765625 L 20.140625 15.015625 C 20.066406 15.027344 20.015625 15.066406 19.988281 15.132812 L 19.632812 16.039062 L 18.929688 15.972656 L 18.109375 14.246094 C 18.078125 14.175781 18.019531 14.132812 17.9375 14.117188 L 16.6875 13.890625 C 16.65625 13.886719 16.625 13.886719 16.589844 13.890625 L 15.03125 14.203125 C 14.945312 14.222656 14.886719 14.269531 14.859375 14.347656 L 14.164062 16.261719 C 14.144531 16.308594 14.144531 16.359375 14.164062 16.40625 L 14.867188 18.203125 L 14.871094 18.207031 L 13.738281 18.207031 C 13.675781 18.207031 13.644531 18.238281 13.644531 18.296875 C 13.644531 18.355469 13.675781 18.386719 13.738281 18.386719 L 23.984375 18.386719 C 24.046875 18.386719 24.078125 18.355469 24.078125 18.296875 C 24.078125 18.238281 24.046875 18.207031 23.984375 18.207031 Z M 21.796875 14.96875 C 21.8125 14.953125 21.828125 14.949219 21.851562 14.953125 L 22.601562 15.074219 C 22.628906 15.078125 22.652344 15.09375 22.664062 15.121094 L 23.058594 15.886719 C 23.058594 15.890625 23.058594 15.894531 23.054688 15.898438 C 23.050781 15.898438 23.046875 15.898438 23.042969 15.894531 L 22.816406 15.625 C 22.800781 15.605469 22.78125 15.597656 22.753906 15.59375 L 22.386719 15.5625 C 22.359375 15.5625 22.332031 15.570312 22.3125 15.589844 C 22.292969 15.609375 22.285156 15.628906 22.292969 15.65625 L 22.457031 16.324219 C 22.457031 16.328125 22.457031 16.332031 22.449219 16.332031 C 22.445312 16.332031 22.441406 16.332031 22.4375 16.328125 L 21.789062 15.015625 C 21.78125 14.996094 21.785156 14.980469 21.796875 14.96875 Z M 21.535156 14.917969 C 21.542969 14.910156 21.554688 14.902344 21.570312 14.90625 C 21.582031 14.90625 21.59375 14.910156 21.601562 14.921875 L 22.304688 16.351562 C 22.3125 16.363281 22.3125 16.375 22.300781 16.386719 C 22.289062 16.394531 22.277344 16.398438 22.261719 16.394531 L 21.890625 16.285156 C 21.886719 16.285156 21.882812 16.28125 21.882812 16.277344 C 21.882812 16.273438 21.886719 16.273438 21.890625 16.269531 L 21.960938 16.261719 C 21.972656 16.261719 21.980469 16.257812 21.988281 16.246094 C 21.996094 16.238281 21.996094 16.230469 21.988281 16.21875 L 21.457031 15.230469 C 21.453125 15.222656 21.445312 15.214844 21.4375 15.214844 C 21.425781 15.210938 21.417969 15.210938 21.40625 15.214844 L 21.335938 15.25 C 21.332031 15.253906 21.328125 15.253906 21.324219 15.25 C 21.320312 15.246094 21.320312 15.246094 21.324219 15.242188 Z M 18.980469 16.242188 C 18.996094 16.203125 19.003906 16.164062 18.996094 16.125 L 20.671875 16.285156 C 20.808594 16.300781 20.859375 16.398438 20.878906 16.503906 C 20.878906 16.507812 20.878906 16.511719 20.875 16.515625 C 20.871094 16.515625 20.867188 16.515625 20.863281 16.515625 C 20.816406 16.480469 20.761719 16.464844 20.703125 16.460938 L 18.949219 16.316406 Z M 20.726562 16.808594 L 20.730469 16.808594 C 20.761719 16.8125 20.792969 16.808594 20.824219 16.792969 C 20.828125 16.789062 20.832031 16.789062 20.835938 16.792969 C 20.839844 16.796875 20.839844 16.800781 20.835938 16.804688 C 20.808594 16.863281 20.765625 16.90625 20.707031 16.902344 L 20.703125 16.898438 L 18.746094 16.777344 L 18.792969 16.671875 Z M 16.949219 14.144531 C 16.964844 14.125 16.984375 14.121094 17.007812 14.125 L 17.875 14.277344 C 17.910156 14.285156 17.9375 14.300781 17.949219 14.332031 L 18.402344 15.289062 C 18.40625 15.292969 18.40625 15.296875 18.398438 15.300781 C 18.394531 15.304688 18.386719 15.304688 18.386719 15.296875 L 18.125 14.964844 C 18.109375 14.941406 18.082031 14.925781 18.050781 14.925781 L 17.628906 14.886719 C 17.535156 14.878906 17.5 14.914062 17.519531 15 L 17.707031 15.828125 C 17.710938 15.835938 17.707031 15.839844 17.703125 15.839844 C 17.695312 15.84375 17.691406 15.839844 17.6875 15.835938 L 16.941406 14.203125 C 16.929688 14.183594 16.933594 14.164062 16.949219 14.144531 Z M 16.648438 14.085938 C 16.65625 14.070312 16.667969 14.066406 16.683594 14.066406 C 16.703125 14.066406 16.714844 14.074219 16.71875 14.089844 L 17.535156 15.867188 C 17.542969 15.882812 17.539062 15.894531 17.527344 15.90625 C 17.515625 15.917969 17.5 15.921875 17.484375 15.917969 L 17.054688 15.785156 C 17.050781 15.78125 17.046875 15.777344 17.046875 15.773438 C 17.046875 15.769531 17.050781 15.765625 17.058594 15.765625 L 17.136719 15.757812 C 17.175781 15.75 17.183594 15.734375 17.167969 15.703125 L 16.554688 14.472656 C 16.542969 14.445312 16.523438 14.441406 16.496094 14.453125 L 16.414062 14.496094 C 16.410156 14.5 16.40625 14.5 16.402344 14.496094 C 16.398438 14.492188 16.398438 14.488281 16.398438 14.484375 Z M 14.515625 16.414062 C 14.515625 16.417969 14.515625 16.421875 14.507812 16.421875 C 14.5 16.425781 14.496094 16.421875 14.496094 16.417969 L 14.441406 16.3125 C 14.429688 16.289062 14.429688 16.261719 14.441406 16.238281 L 14.953125 14.835938 C 14.96875 14.800781 14.996094 14.78125 15.035156 14.773438 L 15.824219 14.652344 C 15.902344 14.640625 15.960938 14.667969 15.992188 14.738281 L 16.546875 15.984375 C 16.5625 16.019531 16.5625 16.054688 16.546875 16.085938 L 16.457031 16.324219 C 16.453125 16.328125 16.449219 16.332031 16.445312 16.332031 C 16.4375 16.328125 16.4375 16.328125 16.4375 16.320312 C 16.429688 16.160156 16.285156 16.003906 16.113281 16.050781 C 16.015625 16.078125 15.953125 16.171875 15.914062 16.273438 C 15.863281 16.414062 15.78125 16.597656 15.578125 16.664062 C 15.570312 16.664062 15.566406 16.664062 15.5625 16.65625 C 15.5625 16.652344 15.5625 16.648438 15.566406 16.644531 C 15.625 16.605469 15.667969 16.558594 15.703125 16.5 C 15.835938 16.253906 15.835938 16.007812 15.703125 15.757812 C 15.648438 15.671875 15.570312 15.59375 15.460938 15.574219 C 15.445312 15.570312 15.429688 15.570312 15.414062 15.570312 L 15.007812 15.570312 C 14.992188 15.570312 14.976562 15.570312 14.960938 15.574219 C 14.851562 15.59375 14.769531 15.671875 14.71875 15.757812 C 14.65625 15.875 14.625 16 14.625 16.128906 C 14.625 16.140625 14.625 16.148438 14.625 16.160156 C 14.625 16.164062 14.625 16.167969 14.617188 16.167969 C 14.546875 16.1875 14.496094 16.269531 14.515625 16.414062 Z M 15.257812 16.5 C 15.304688 16.441406 15.332031 16.378906 15.351562 16.308594 C 15.351562 16.304688 15.355469 16.300781 15.363281 16.300781 L 15.605469 16.300781 C 15.609375 16.300781 15.613281 16.304688 15.613281 16.304688 C 15.617188 16.308594 15.617188 16.3125 15.617188 16.316406 C 15.605469 16.34375 15.59375 16.371094 15.578125 16.398438 C 15.550781 16.445312 15.5 16.503906 15.441406 16.515625 C 15.4375 16.515625 15.429688 16.515625 15.425781 16.515625 L 15.265625 16.515625 C 15.261719 16.515625 15.261719 16.515625 15.257812 16.511719 C 15.257812 16.507812 15.257812 16.503906 15.257812 16.5 Z M 15.257812 15.707031 C 15.261719 15.703125 15.261719 15.703125 15.265625 15.703125 L 15.425781 15.703125 C 15.429688 15.703125 15.4375 15.703125 15.441406 15.703125 C 15.5 15.714844 15.550781 15.773438 15.578125 15.816406 C 15.605469 15.863281 15.621094 15.914062 15.632812 15.964844 C 15.632812 15.96875 15.632812 15.96875 15.632812 15.972656 C 15.628906 15.976562 15.628906 15.976562 15.625 15.976562 L 15.375 15.976562 C 15.371094 15.976562 15.367188 15.972656 15.367188 15.96875 C 15.351562 15.878906 15.316406 15.792969 15.257812 15.71875 C 15.257812 15.714844 15.257812 15.710938 15.257812 15.707031 Z M 14.847656 15.996094 C 14.820312 15.996094 14.800781 16.007812 14.78125 16.027344 C 14.777344 16.027344 14.773438 16.027344 14.769531 16.027344 C 14.765625 16.023438 14.761719 16.023438 14.761719 16.015625 C 14.785156 15.824219 14.886719 15.683594 15.003906 15.683594 C 15.140625 15.683594 15.25 15.875 15.25 16.109375 C 15.25 16.34375 15.140625 16.535156 15.003906 16.535156 C 14.972656 16.535156 14.949219 16.527344 14.925781 16.511719 C 14.921875 16.511719 14.921875 16.507812 14.917969 16.507812 C 14.917969 16.503906 14.921875 16.5 14.921875 16.5 C 14.96875 16.453125 15.003906 16.363281 15.003906 16.265625 C 15.003906 16.117188 14.933594 15.996094 14.847656 15.996094 Z M 16.527344 18.15625 C 16.523438 18.160156 16.519531 18.160156 16.511719 18.15625 L 16.132812 17.890625 C 16.09375 17.863281 16.050781 17.851562 16.003906 17.851562 L 15.195312 17.867188 C 15.128906 17.867188 15.082031 17.894531 15.058594 17.953125 L 14.984375 18.109375 C 14.980469 18.113281 14.976562 18.117188 14.972656 18.113281 C 14.964844 18.113281 14.964844 18.109375 14.964844 18.105469 L 14.984375 17.867188 C 14.984375 17.84375 14.984375 17.824219 14.972656 17.804688 L 14.574219 16.804688 C 14.570312 16.800781 14.574219 16.796875 14.578125 16.792969 C 14.585938 16.792969 14.589844 16.792969 14.59375 16.796875 L 15.050781 17.679688 C 15.082031 17.734375 15.128906 17.761719 15.195312 17.761719 L 15.925781 17.742188 C 16.019531 17.742188 16.082031 17.699219 16.113281 17.617188 L 16.722656 16.085938 C 16.742188 16.039062 16.738281 15.992188 16.71875 15.945312 L 16.121094 14.628906 C 16.078125 14.535156 16.003906 14.496094 15.898438 14.511719 L 15.097656 14.632812 C 15.023438 14.644531 14.984375 14.617188 14.980469 14.550781 L 14.964844 14.398438 C 14.964844 14.394531 14.964844 14.390625 14.972656 14.390625 C 14.976562 14.386719 14.980469 14.390625 14.984375 14.394531 L 15.027344 14.472656 C 15.050781 14.511719 15.085938 14.527344 15.136719 14.519531 L 16.035156 14.375 C 16.070312 14.371094 16.105469 14.355469 16.132812 14.332031 L 16.5 14.042969 C 16.503906 14.039062 16.507812 14.039062 16.511719 14.042969 C 16.515625 14.046875 16.515625 14.050781 16.515625 14.054688 L 16.289062 14.386719 C 16.25 14.441406 16.246094 14.5 16.273438 14.5625 L 16.847656 15.832031 C 16.871094 15.890625 16.917969 15.929688 16.984375 15.941406 L 17.417969 16.042969 C 17.425781 16.042969 17.425781 16.046875 17.425781 16.054688 C 17.425781 16.0625 17.421875 16.0625 17.414062 16.0625 L 17.042969 16.0625 C 16.945312 16.0625 16.882812 16.101562 16.847656 16.1875 L 16.253906 17.660156 C 16.222656 17.726562 16.234375 17.785156 16.28125 17.839844 L 16.527344 18.144531 C 16.53125 18.148438 16.53125 18.152344 16.527344 18.15625 Z M 16.75 18.058594 C 16.734375 18.058594 16.722656 18.054688 16.710938 18.042969 L 16.4375 17.761719 C 16.433594 17.757812 16.433594 17.753906 16.4375 17.75 C 16.4375 17.746094 16.441406 17.746094 16.449219 17.746094 L 16.605469 17.789062 C 16.632812 17.796875 16.648438 17.789062 16.65625 17.765625 L 17.238281 16.355469 C 17.246094 16.332031 17.238281 16.316406 17.214844 16.308594 L 16.992188 16.226562 C 16.984375 16.222656 16.984375 16.21875 16.984375 16.214844 C 16.988281 16.210938 16.992188 16.207031 16.996094 16.207031 L 17.503906 16.207031 C 17.542969 16.207031 17.554688 16.226562 17.539062 16.261719 L 16.78125 18.035156 C 16.773438 18.046875 16.765625 18.054688 16.75 18.058594 Z M 17.75 16.617188 L 17.316406 17.21875 C 17.3125 17.222656 17.308594 17.222656 17.304688 17.222656 C 17.296875 17.21875 17.296875 17.214844 17.300781 17.207031 L 17.757812 16.136719 C 17.773438 16.09375 17.808594 16.074219 17.859375 16.078125 L 18.734375 16.140625 C 18.792969 16.144531 18.808594 16.167969 18.789062 16.21875 L 18.460938 16.960938 C 18.460938 16.964844 18.457031 16.96875 18.449219 16.964844 C 18.445312 16.964844 18.441406 16.960938 18.441406 16.957031 L 18.472656 16.710938 C 18.480469 16.640625 18.449219 16.605469 18.375 16.601562 L 17.839844 16.578125 C 17.800781 16.574219 17.773438 16.585938 17.75 16.617188 Z M 18.117188 18.207031 L 18.683594 16.917969 L 19.464844 16.96875 L 19.984375 18.207031 Z M 21.433594 18.191406 C 21.429688 18.195312 21.425781 18.195312 21.421875 18.195312 L 21.089844 17.980469 C 21.058594 17.960938 21.019531 17.949219 20.980469 17.949219 L 20.28125 17.960938 C 20.222656 17.960938 20.183594 17.984375 20.160156 18.03125 L 20.097656 18.15625 C 20.09375 18.160156 20.089844 18.160156 20.085938 18.160156 C 20.082031 18.160156 20.078125 18.15625 20.078125 18.152344 L 20.097656 17.960938 C 20.097656 17.945312 20.09375 17.929688 20.089844 17.914062 L 19.742188 17.109375 C 19.738281 17.101562 19.742188 17.101562 19.746094 17.097656 C 19.75 17.097656 19.753906 17.097656 19.757812 17.101562 L 20.15625 17.8125 C 20.183594 17.855469 20.222656 17.878906 20.28125 17.875 L 20.910156 17.863281 C 20.988281 17.863281 21.042969 17.828125 21.074219 17.761719 L 21.601562 16.527344 C 21.617188 16.492188 21.617188 16.453125 21.597656 16.417969 L 21.082031 15.355469 C 21.042969 15.28125 20.976562 15.25 20.886719 15.265625 L 20.195312 15.363281 C 20.167969 15.367188 20.148438 15.359375 20.125 15.347656 C 20.105469 15.332031 20.09375 15.316406 20.09375 15.292969 L 20.078125 15.171875 C 20.078125 15.167969 20.082031 15.164062 20.085938 15.164062 C 20.089844 15.164062 20.09375 15.164062 20.097656 15.167969 L 20.132812 15.230469 C 20.15625 15.261719 20.1875 15.277344 20.226562 15.269531 L 21.007812 15.15625 C 21.039062 15.148438 21.066406 15.136719 21.089844 15.121094 L 21.410156 14.886719 C 21.414062 14.882812 21.414062 14.882812 21.417969 14.886719 C 21.421875 14.886719 21.425781 14.890625 21.421875 14.894531 L 21.226562 15.164062 C 21.195312 15.207031 21.191406 15.253906 21.214844 15.304688 L 21.710938 16.324219 C 21.734375 16.375 21.773438 16.402344 21.832031 16.414062 L 22.203125 16.496094 C 22.210938 16.496094 22.210938 16.5 22.210938 16.503906 C 22.210938 16.507812 22.207031 16.511719 22.203125 16.511719 L 21.878906 16.511719 C 21.796875 16.507812 21.742188 16.542969 21.710938 16.609375 L 21.195312 17.792969 C 21.171875 17.847656 21.179688 17.898438 21.21875 17.941406 L 21.433594 18.183594 C 21.4375 18.1875 21.4375 18.191406 21.433594 18.191406 Z M 21.625 18.113281 C 21.613281 18.117188 21.601562 18.113281 21.59375 18.105469 L 21.355469 17.875 C 21.351562 17.875 21.351562 17.871094 21.355469 17.867188 C 21.355469 17.863281 21.359375 17.863281 21.363281 17.863281 L 21.5 17.898438 C 21.523438 17.90625 21.535156 17.898438 21.546875 17.878906 L 22.046875 16.746094 C 22.058594 16.726562 22.050781 16.714844 22.027344 16.707031 L 21.835938 16.640625 C 21.832031 16.640625 21.828125 16.636719 21.832031 16.632812 C 21.832031 16.628906 21.835938 16.628906 21.839844 16.628906 L 22.277344 16.628906 C 22.289062 16.628906 22.300781 16.632812 22.308594 16.640625 C 22.316406 16.648438 22.316406 16.660156 22.3125 16.667969 L 21.652344 18.09375 C 21.648438 18.105469 21.636719 18.113281 21.625 18.113281 Z M 22.492188 16.957031 L 22.117188 17.4375 C 22.113281 17.441406 22.109375 17.441406 22.105469 17.441406 C 22.101562 17.4375 22.097656 17.4375 22.101562 17.429688 L 22.496094 16.570312 C 22.515625 16.535156 22.546875 16.519531 22.585938 16.523438 L 23.34375 16.570312 C 23.363281 16.574219 23.375 16.582031 23.386719 16.59375 C 23.394531 16.605469 23.398438 16.621094 23.390625 16.636719 L 23.109375 17.234375 C 23.105469 17.238281 23.101562 17.238281 23.097656 17.238281 C 23.09375 17.238281 23.089844 17.234375 23.089844 17.230469 L 23.117188 17.03125 C 23.121094 17.007812 23.113281 16.988281 23.097656 16.972656 C 23.082031 16.953125 23.058594 16.945312 23.035156 16.945312 L 22.570312 16.921875 C 22.539062 16.921875 22.511719 16.933594 22.492188 16.957031 Z M 22.492188 16.957031 " fill-opacity="1" fill-rule="evenodd"/></g><g fill="#000000" fill-opacity="1"><g transform="translate(11.100495, 22.201235)"><g><path d="M 0.03125 -0.203125 L 0.203125 -0.265625 L 0.0625 -1.421875 L -0.109375 -1.421875 L -0.140625 -1.625 L 1.140625 -1.796875 L 1.203125 -1.34375 L 0.953125 -1.3125 L 0.90625 -1.484375 L 0.390625 -1.421875 L 0.453125 -1 L 1.015625 -1.078125 L 1.046875 -0.8125 L 0.484375 -0.734375 L 0.53125 -0.296875 L 0.703125 -0.296875 L 0.734375 -0.09375 L 0.0625 0 Z M 0.03125 -0.203125 "/></g></g></g><g fill="#000000" fill-opacity="1"><g transform="translate(12.764818, 22.005432)"><g><path d="M -0.078125 -1.4375 L -0.09375 -1.640625 L 0.578125 -1.71875 L 0.59375 -1.515625 L 0.421875 -1.453125 L 0.546875 -0.28125 L 0.71875 -0.28125 L 0.734375 -0.078125 L 0.0625 0 L 0.046875 -0.203125 L 0.21875 -0.25 L 0.09375 -1.421875 Z M -0.078125 -1.4375 "/></g></g></g><g fill="#000000" fill-opacity="1"><g transform="translate(13.814692, 21.901449)"><g><path d="M 1.375 -1.75 L 1.40625 -1.3125 L 1.15625 -1.296875 L 1.140625 -1.46875 L 0.84375 -1.4375 L 0.921875 -0.296875 L 1.09375 -0.28125 L 1.109375 -0.078125 L 0.4375 -0.03125 L 0.421875 -0.234375 L 0.59375 -0.28125 L 0.515625 -1.421875 L 0.21875 -1.390625 L 0.203125 -1.21875 L -0.046875 -1.203125 L -0.078125 -1.640625 Z M 1.375 -1.75 "/></g></g></g><g fill="#000000" fill-opacity="1"><g transform="translate(15.61292, 21.779656)"><g/></g></g><g fill="#000000" fill-opacity="1"><g transform="translate(16.431595, 21.736558)"><g><path d="M 1.421875 -0.21875 C 1.367188 -0.164062 1.289062 -0.113281 1.1875 -0.0625 C 1.082031 -0.0195312 0.953125 0.00390625 0.796875 0.015625 C 0.578125 0.015625 0.394531 -0.0546875 0.25 -0.203125 C 0.101562 -0.347656 0.03125 -0.539062 0.03125 -0.78125 L 0.03125 -0.828125 C 0.0195312 -1.078125 0.0820312 -1.28125 0.21875 -1.4375 C 0.351562 -1.59375 0.53125 -1.671875 0.75 -1.671875 C 0.875 -1.679688 0.988281 -1.664062 1.09375 -1.625 C 1.195312 -1.582031 1.289062 -1.53125 1.375 -1.46875 L 1.375 -1.125 L 1.140625 -1.125 L 1.09375 -1.34375 C 1.0625 -1.375 1.019531 -1.394531 0.96875 -1.40625 C 0.914062 -1.425781 0.859375 -1.429688 0.796875 -1.421875 C 0.648438 -1.421875 0.535156 -1.367188 0.453125 -1.265625 C 0.378906 -1.160156 0.347656 -1.019531 0.359375 -0.84375 L 0.359375 -0.796875 C 0.359375 -0.628906 0.398438 -0.492188 0.484375 -0.390625 C 0.566406 -0.296875 0.679688 -0.25 0.828125 -0.25 C 0.898438 -0.257812 0.953125 -0.269531 0.984375 -0.28125 C 1.023438 -0.289062 1.0625 -0.300781 1.09375 -0.3125 L 1.078125 -0.59375 L 0.84375 -0.59375 L 0.84375 -0.828125 L 1.40625 -0.84375 Z M 1.421875 -0.21875 "/></g></g></g><g fill="#000000" fill-opacity="1"><g transform="translate(18.20054, 21.693217)"><g><path d="M 1.109375 -0.71875 L 0.5625 -0.71875 L 0.5625 -0.25 L 1.09375 -0.25 L 1.109375 -0.453125 L 1.359375 -0.453125 L 1.359375 0 L 0.0625 0 L 0.0625 -0.203125 L 0.234375 -0.234375 L 0.234375 -1.40625 L 0.0625 -1.4375 L 0.0625 -1.640625 L 1.359375 -1.640625 L 1.359375 -1.1875 L 1.09375 -1.1875 L 1.09375 -1.375 L 0.5625 -1.375 L 0.5625 -0.96875 L 1.109375 -0.96875 Z M 1.109375 -0.71875 "/></g></g></g><g fill="#000000" fill-opacity="1"><g transform="translate(19.917758, 21.700877)"><g><path d="M 1.796875 -1.578125 L 1.78125 -1.375 L 1.609375 -1.34375 L 1.5625 0.0625 L 1.234375 0.046875 L 0.625 -1.078125 L 0.609375 -1.078125 L 0.578125 -0.21875 L 0.734375 -0.171875 L 0.734375 0.03125 L 0.0625 0 L 0.0625 -0.203125 L 0.25 -0.21875 L 0.28125 -1.390625 L 0.109375 -1.4375 L 0.125 -1.640625 L 0.296875 -1.625 L 0.625 -1.625 L 1.234375 -0.484375 L 1.25 -0.484375 L 1.28125 -1.359375 L 1.109375 -1.40625 L 1.125 -1.609375 L 1.625 -1.578125 Z M 1.796875 -1.578125 "/></g></g></g><g fill="#000000" fill-opacity="1"><g transform="translate(21.945461, 21.784315)"><g><path d="M 0.15625 -1.4375 L 0.171875 -1.640625 L 0.84375 -1.59375 L 0.828125 -1.390625 L 0.65625 -1.375 L 0.578125 -0.203125 L 0.75 -0.15625 L 0.734375 0.046875 L 0.0625 0 L 0.078125 -0.203125 L 0.25 -0.21875 L 0.328125 -1.390625 Z M 0.15625 -1.4375 "/></g></g></g><g fill="#000000" fill-opacity="1"><g transform="translate(22.997281, 21.847935)"><g><path d="M 0.859375 -1.578125 L 0.84375 -1.375 L 0.671875 -1.359375 L 0.59375 -0.5 C 0.582031 -0.394531 0.601562 -0.3125 0.65625 -0.25 C 0.707031 -0.195312 0.785156 -0.164062 0.890625 -0.15625 C 0.992188 -0.144531 1.078125 -0.160156 1.140625 -0.203125 C 1.203125 -0.253906 1.238281 -0.332031 1.25 -0.4375 L 1.328125 -1.296875 L 1.15625 -1.34375 L 1.171875 -1.546875 L 1.84375 -1.484375 L 1.828125 -1.28125 L 1.65625 -1.265625 L 1.578125 -0.40625 C 1.566406 -0.226562 1.492188 -0.09375 1.359375 0 C 1.234375 0.09375 1.070312 0.128906 0.875 0.109375 C 0.675781 0.0859375 0.519531 0.0195312 0.40625 -0.09375 C 0.300781 -0.207031 0.253906 -0.351562 0.265625 -0.53125 L 0.34375 -1.390625 L 0.171875 -1.4375 L 0.1875 -1.640625 L 0.359375 -1.625 L 0.6875 -1.59375 Z M 0.859375 -1.578125 "/></g></g></g><g fill="#000000" fill-opacity="1"><g transform="translate(24.975076, 22.032425)"><g><path d="M 1.421875 -0.9375 L 1.1875 -0.96875 L 1.171875 -1.1875 C 1.148438 -1.207031 1.113281 -1.226562 1.0625 -1.25 C 1.007812 -1.28125 0.953125 -1.296875 0.890625 -1.296875 C 0.796875 -1.316406 0.722656 -1.3125 0.671875 -1.28125 C 0.617188 -1.25 0.585938 -1.203125 0.578125 -1.140625 C 0.578125 -1.078125 0.597656 -1.023438 0.640625 -0.984375 C 0.691406 -0.953125 0.773438 -0.910156 0.890625 -0.859375 C 1.066406 -0.785156 1.191406 -0.703125 1.265625 -0.609375 C 1.347656 -0.515625 1.378906 -0.398438 1.359375 -0.265625 C 1.347656 -0.128906 1.285156 -0.0234375 1.171875 0.046875 C 1.054688 0.117188 0.90625 0.144531 0.71875 0.125 C 0.59375 0.101562 0.476562 0.0664062 0.375 0.015625 C 0.28125 -0.0351562 0.203125 -0.101562 0.140625 -0.1875 L 0.171875 -0.53125 L 0.421875 -0.5 L 0.4375 -0.265625 C 0.46875 -0.234375 0.507812 -0.203125 0.5625 -0.171875 C 0.625 -0.148438 0.6875 -0.132812 0.75 -0.125 C 0.84375 -0.113281 0.914062 -0.125 0.96875 -0.15625 C 1.019531 -0.1875 1.046875 -0.234375 1.046875 -0.296875 C 1.054688 -0.359375 1.039062 -0.410156 1 -0.453125 C 0.957031 -0.503906 0.882812 -0.554688 0.78125 -0.609375 C 0.59375 -0.679688 0.453125 -0.757812 0.359375 -0.84375 C 0.273438 -0.9375 0.238281 -1.046875 0.25 -1.171875 C 0.269531 -1.304688 0.335938 -1.410156 0.453125 -1.484375 C 0.578125 -1.554688 0.726562 -1.582031 0.90625 -1.5625 C 1.03125 -1.539062 1.140625 -1.503906 1.234375 -1.453125 C 1.328125 -1.410156 1.398438 -1.351562 1.453125 -1.28125 Z M 1.421875 -0.9375 "/></g></g></g><g fill="#555555" fill-opacity="1"><g transform="translate(14.069994, 23.851749)"><g><path d="M 0.4375 -0.90625 C 0.570312 -0.90625 0.6875 -0.875 0.78125 -0.8125 L 0.703125 -0.625 C 0.648438 -0.65625 0.597656 -0.675781 0.546875 -0.6875 C 0.492188 -0.707031 0.453125 -0.71875 0.421875 -0.71875 C 0.347656 -0.71875 0.3125 -0.695312 0.3125 -0.65625 C 0.3125 -0.625 0.328125 -0.597656 0.359375 -0.578125 C 0.390625 -0.566406 0.425781 -0.554688 0.46875 -0.546875 C 0.519531 -0.535156 0.566406 -0.519531 0.609375 -0.5 C 0.660156 -0.476562 0.703125 -0.445312 0.734375 -0.40625 C 0.773438 -0.375 0.796875 -0.328125 0.796875 -0.265625 C 0.796875 -0.179688 0.757812 -0.113281 0.6875 -0.0625 C 0.625 -0.0195312 0.539062 0 0.4375 0 C 0.363281 0 0.289062 -0.0078125 0.21875 -0.03125 C 0.144531 -0.0507812 0.078125 -0.0859375 0.015625 -0.140625 L 0.109375 -0.3125 C 0.148438 -0.269531 0.203125 -0.234375 0.265625 -0.203125 C 0.328125 -0.179688 0.382812 -0.171875 0.4375 -0.171875 C 0.46875 -0.171875 0.492188 -0.175781 0.515625 -0.1875 C 0.535156 -0.207031 0.546875 -0.226562 0.546875 -0.25 C 0.546875 -0.28125 0.535156 -0.300781 0.515625 -0.3125 C 0.492188 -0.332031 0.460938 -0.34375 0.421875 -0.34375 C 0.390625 -0.351562 0.351562 -0.363281 0.3125 -0.375 C 0.269531 -0.394531 0.226562 -0.410156 0.1875 -0.421875 C 0.15625 -0.441406 0.128906 -0.46875 0.109375 -0.5 C 0.0859375 -0.539062 0.078125 -0.585938 0.078125 -0.640625 C 0.078125 -0.722656 0.109375 -0.785156 0.171875 -0.828125 C 0.234375 -0.878906 0.320312 -0.90625 0.4375 -0.90625 Z M 0.4375 -0.90625 "/></g></g></g><g fill="#555555" fill-opacity="1"><g transform="translate(15.108186, 23.851749)"><g><path d="M 0.3125 0 L 0.09375 0 L 0.09375 -0.890625 L 0.3125 -0.890625 Z M 0.3125 0 "/></g></g></g><g fill="#555555" fill-opacity="1"><g transform="translate(15.728054, 23.851749)"><g><path d="M 0.921875 0 L 0.71875 0 L 0.296875 -0.546875 L 0.296875 0 L 0.09375 0 L 0.09375 -0.890625 L 0.296875 -0.890625 L 0.703125 -0.34375 L 0.703125 -0.890625 L 0.921875 -0.890625 Z M 0.921875 0 "/></g></g></g><g fill="#555555" fill-opacity="1"><g transform="translate(16.948462, 23.851749)"><g><path d="M 0.515625 -0.90625 C 0.578125 -0.90625 0.640625 -0.890625 0.703125 -0.859375 C 0.765625 -0.835938 0.820312 -0.800781 0.875 -0.75 L 0.734375 -0.59375 C 0.710938 -0.632812 0.679688 -0.664062 0.640625 -0.6875 C 0.597656 -0.707031 0.554688 -0.71875 0.515625 -0.71875 C 0.441406 -0.71875 0.378906 -0.691406 0.328125 -0.640625 C 0.285156 -0.585938 0.265625 -0.523438 0.265625 -0.453125 C 0.265625 -0.378906 0.285156 -0.316406 0.328125 -0.265625 C 0.378906 -0.210938 0.441406 -0.1875 0.515625 -0.1875 C 0.546875 -0.1875 0.582031 -0.195312 0.625 -0.21875 C 0.664062 -0.238281 0.703125 -0.265625 0.734375 -0.296875 L 0.875 -0.15625 C 0.820312 -0.101562 0.757812 -0.0625 0.6875 -0.03125 C 0.625 0 0.5625 0.015625 0.5 0.015625 C 0.363281 0.015625 0.25 -0.0234375 0.15625 -0.109375 C 0.0703125 -0.203125 0.03125 -0.316406 0.03125 -0.453125 C 0.03125 -0.578125 0.078125 -0.679688 0.171875 -0.765625 C 0.265625 -0.859375 0.378906 -0.90625 0.515625 -0.90625 Z M 0.515625 -0.90625 "/></g></g></g><g fill="#555555" fill-opacity="1"><g transform="translate(18.048249, 23.851749)"><g><path d="M 0.796875 -0.71875 L 0.3125 -0.71875 L 0.3125 -0.546875 L 0.75 -0.546875 L 0.75 -0.359375 L 0.3125 -0.359375 L 0.3125 -0.171875 L 0.8125 -0.171875 L 0.8125 0 L 0.09375 0 L 0.09375 -0.890625 L 0.796875 -0.890625 Z M 0.796875 -0.71875 "/></g></g></g><g fill="#555555" fill-opacity="1"><g transform="translate(19.124939, 23.851749)"><g/></g></g><g fill="#555555" fill-opacity="1"><g transform="translate(19.634451, 23.851749)"><g><path d="M 0.390625 -0.90625 C 0.484375 -0.90625 0.554688 -0.882812 0.609375 -0.84375 C 0.671875 -0.800781 0.703125 -0.742188 0.703125 -0.671875 C 0.703125 -0.585938 0.644531 -0.488281 0.53125 -0.375 L 0.34375 -0.1875 L 0.71875 -0.1875 L 0.71875 0 L 0.046875 0 L 0.046875 -0.140625 L 0.375 -0.484375 C 0.425781 -0.546875 0.453125 -0.597656 0.453125 -0.640625 C 0.453125 -0.660156 0.441406 -0.675781 0.421875 -0.6875 C 0.410156 -0.707031 0.390625 -0.71875 0.359375 -0.71875 C 0.285156 -0.71875 0.203125 -0.679688 0.109375 -0.609375 L 0.03125 -0.765625 C 0.144531 -0.859375 0.265625 -0.90625 0.390625 -0.90625 Z M 0.390625 -0.90625 "/></g></g></g><g fill="#555555" fill-opacity="1"><g transform="translate(20.616184, 23.851749)"><g><path d="M 0.453125 -0.90625 C 0.578125 -0.90625 0.671875 -0.863281 0.734375 -0.78125 C 0.804688 -0.707031 0.84375 -0.597656 0.84375 -0.453125 C 0.84375 -0.304688 0.804688 -0.191406 0.734375 -0.109375 C 0.671875 -0.0351562 0.578125 0 0.453125 0 C 0.328125 0 0.226562 -0.0351562 0.15625 -0.109375 C 0.0820312 -0.191406 0.046875 -0.304688 0.046875 -0.453125 C 0.046875 -0.597656 0.0820312 -0.707031 0.15625 -0.78125 C 0.226562 -0.863281 0.328125 -0.90625 0.453125 -0.90625 Z M 0.453125 -0.734375 C 0.390625 -0.734375 0.34375 -0.710938 0.3125 -0.671875 C 0.289062 -0.628906 0.28125 -0.554688 0.28125 -0.453125 C 0.28125 -0.347656 0.289062 -0.269531 0.3125 -0.21875 C 0.34375 -0.175781 0.390625 -0.15625 0.453125 -0.15625 C 0.503906 -0.15625 0.539062 -0.175781 0.5625 -0.21875 C 0.59375 -0.269531 0.609375 -0.347656 0.609375 -0.453125 C 0.609375 -0.554688 0.59375 -0.628906 0.5625 -0.671875 C 0.539062 -0.710938 0.503906 -0.734375 0.453125 -0.734375 Z M 0.453125 -0.734375 "/></g></g></g><g fill="#555555" fill-opacity="1"><g transform="translate(21.730087, 23.851749)"><g><path d="M 0.390625 -0.90625 C 0.484375 -0.90625 0.554688 -0.882812 0.609375 -0.84375 C 0.671875 -0.800781 0.703125 -0.742188 0.703125 -0.671875 C 0.703125 -0.585938 0.644531 -0.488281 0.53125 -0.375 L 0.34375 -0.1875 L 0.71875 -0.1875 L 0.71875 0 L 0.046875 0 L 0.046875 -0.140625 L 0.375 -0.484375 C 0.425781 -0.546875 0.453125 -0.597656 0.453125 -0.640625 C 0.453125 -0.660156 0.441406 -0.675781 0.421875 -0.6875 C 0.410156 -0.707031 0.390625 -0.71875 0.359375 -0.71875 C 0.285156 -0.71875 0.203125 -0.679688 0.109375 -0.609375 L 0.03125 -0.765625 C 0.144531 -0.859375 0.265625 -0.90625 0.390625 -0.90625 Z M 0.390625 -0.90625 "/></g></g></g><g fill="#555555" fill-opacity="1"><g transform="translate(22.711819, 23.851749)"><g><path d="M 0.40625 -0.53125 L 0.453125 -0.53125 C 0.515625 -0.519531 0.566406 -0.492188 0.609375 -0.453125 C 0.648438 -0.410156 0.671875 -0.351562 0.671875 -0.28125 C 0.671875 -0.195312 0.640625 -0.125 0.578125 -0.0625 C 0.515625 -0.0078125 0.429688 0.015625 0.328125 0.015625 C 0.265625 0.015625 0.203125 0.00390625 0.140625 -0.015625 C 0.0859375 -0.0351562 0.0390625 -0.0625 0 -0.09375 L 0.09375 -0.265625 C 0.15625 -0.191406 0.226562 -0.15625 0.3125 -0.15625 C 0.351562 -0.15625 0.382812 -0.164062 0.40625 -0.1875 C 0.4375 -0.207031 0.453125 -0.238281 0.453125 -0.28125 C 0.453125 -0.351562 0.40625 -0.390625 0.3125 -0.390625 L 0.171875 -0.390625 L 0.171875 -0.515625 L 0.375 -0.71875 L 0.046875 -0.71875 L 0.046875 -0.890625 L 0.640625 -0.890625 L 0.640625 -0.765625 Z M 0.40625 -0.53125 "/></g></g></g></svg>